<?xml version="1.0" standalone="no"?>
<!DOCTYPE svg PUBLIC "-//W3C//DTD SVG 20010904//EN"
 "http://www.w3.org/TR/2001/REC-SVG-20010904/DTD/svg10.dtd">
<svg version="1.0" xmlns="http://www.w3.org/2000/svg"
 width="512.000000pt" height="327.000000pt" viewBox="0 0 512.000000 327.000000"
 preserveAspectRatio="xMidYMid meet">
<metadata>
Created by potrace 1.16, written by Peter Selinger 2001-2019
</metadata>
<g transform="translate(0.000000,327.000000) scale(0.100000,-0.100000)"
fill="#000000" stroke="none">
<path d="M1 2918 c0 -262 3 -347 11 -330 13 26 28 29 28 6 0 -9 7 -14 18 -12
9 2 22 -3 29 -12 10 -12 15 -13 32 -3 17 11 22 9 36 -10 9 -13 11 -23 5 -25
-13 -5 -13 -42 1 -42 5 0 8 4 5 8 -3 5 8 16 24 25 18 11 31 14 35 7 3 -5 13
-10 21 -10 10 0 8 6 -7 21 -17 17 -23 19 -30 8 -8 -12 -11 -12 -19 1 -14 22
-12 47 7 78 26 42 41 50 82 45 26 -4 42 0 53 11 9 9 20 16 24 16 4 0 17 9 29
20 43 40 115 43 115 5 0 -9 6 -12 16 -8 10 4 22 0 28 -9 6 -8 28 -15 49 -17
20 -1 49 -3 65 -4 15 -1 42 2 60 6 20 4 31 3 27 -3 -3 -5 -1 -18 4 -28 11 -21
70 -35 139 -33 23 1 56 -6 73 -14 18 -10 39 -13 52 -9 37 12 109 3 136 -16 29
-21 81 -17 81 6 0 8 10 14 25 14 18 0 25 5 25 20 0 16 7 20 34 20 21 0 42 9
59 24 29 27 102 34 110 12 6 -15 57 -19 57 -5 0 5 -6 9 -12 9 -24 0 -39 16
-32 34 5 14 14 17 41 13 19 -4 42 -2 51 3 10 5 46 14 82 20 36 6 77 13 91 16
18 4 39 -2 65 -18 22 -14 47 -27 56 -31 18 -6 78 -122 78 -149 0 -26 25 -39
95 -49 67 -9 115 -32 115 -53 0 -7 26 -23 57 -36 32 -12 67 -31 78 -41 13 -11
29 -16 48 -12 21 4 33 -1 52 -21 13 -14 31 -26 40 -26 17 0 21 -16 4 -22 -5
-2 -7 -11 -3 -22 5 -14 14 -16 38 -12 27 5 34 2 49 -23 15 -26 22 -29 55 -26
20 2 50 -2 67 -9 l29 -12 -32 -19 c-32 -20 -42 -49 -19 -58 7 -3 5 -6 -5 -6
-10 -1 -18 4 -18 9 0 6 -5 10 -11 10 -22 0 -120 72 -131 96 -13 28 -23 30 -37
7 -9 -16 -12 -16 -21 -3 -9 12 -10 9 -4 -10 3 -14 13 -33 21 -42 9 -10 13 -24
9 -33 -7 -18 -26 -11 -26 10 0 8 -7 11 -19 8 -10 -3 -22 0 -26 7 -5 7 -17 3
-39 -13 -17 -14 -40 -26 -51 -28 -10 -2 -22 -15 -25 -29 -5 -23 -11 -25 -60
-26 -82 0 -99 5 -93 27 3 10 11 19 17 19 19 0 45 36 36 50 -7 11 -13 10 -34
-3 -31 -21 -56 -22 -56 -2 0 12 -3 11 -18 -3 -9 -10 -22 -27 -28 -38 -6 -11
-26 -21 -45 -24 -25 -4 -33 -10 -31 -22 2 -15 -1 -16 -30 -7 -62 20 -64 22
-33 28 26 5 30 10 29 39 0 18 -5 31 -10 30 -5 -2 -8 -9 -6 -15 2 -7 -4 -13
-12 -13 -10 0 -14 9 -13 28 1 18 -3 27 -13 27 -8 0 -18 4 -22 10 -4 5 -17 0
-32 -14 -16 -15 -34 -22 -53 -20 -15 2 -39 -3 -53 -11 -14 -8 -28 -13 -32 -12
-4 1 -4 -6 -1 -15 5 -13 2 -15 -15 -11 -14 4 -22 2 -22 -6 0 -6 -13 -20 -30
-29 -17 -10 -30 -22 -30 -28 0 -5 -9 -9 -21 -9 -11 0 -17 -4 -14 -10 3 -5 -4
-10 -16 -10 -19 0 -20 2 -8 18 8 9 18 20 23 23 4 4 3 10 -4 14 -15 9 16 45 40
45 10 0 23 6 29 14 9 11 8 15 -6 20 -11 4 -22 1 -29 -8 -6 -9 -14 -13 -17 -9
-4 3 -7 1 -7 -6 0 -7 -4 -10 -9 -6 -6 3 -14 -3 -20 -12 -5 -10 -13 -14 -17
-10 -5 5 -4 11 2 15 6 4 14 17 18 29 7 22 7 22 -26 6 -18 -9 -42 -24 -53 -33
-25 -22 -72 -33 -80 -20 -9 14 -35 -7 -35 -28 0 -8 -2 -13 -5 -10 -3 3 -2 18
1 34 4 23 15 34 45 47 21 9 39 24 39 32 0 14 -3 13 -25 -1 -23 -15 -25 -15
-25 0 0 9 -4 16 -10 16 -5 0 -10 5 -10 10 0 6 7 10 15 10 8 0 15 5 15 10 0 6
16 10 35 10 19 0 35 4 35 9 0 16 43 58 66 65 12 4 33 18 46 31 24 23 59 28 86
11 7 -4 22 -4 35 0 22 7 22 7 -5 18 l-27 12 21 32 c11 17 26 32 33 32 7 0 16
7 19 16 5 13 15 15 49 10 29 -4 48 -2 61 7 17 13 16 15 -18 31 -33 15 -64 23
-103 25 -7 1 -21 10 -32 22 -11 12 -27 19 -38 16 -15 -3 -13 -6 10 -15 19 -8
27 -19 27 -36 0 -33 -14 -40 -47 -24 -20 10 -28 21 -28 40 0 14 -3 29 -6 32
-6 6 -119 15 -119 9 0 -2 5 -12 12 -22 14 -23 4 -51 -18 -51 -10 0 -14 5 -10
16 3 9 2 12 -5 9 -6 -4 -19 1 -29 10 -14 13 -28 16 -52 11 -32 -6 -33 -7 -33
-58 0 -49 -2 -53 -25 -57 -14 -1 -29 -8 -33 -15 -6 -7 -7 -5 -4 6 3 9 -2 23
-12 32 -17 15 -18 14 -16 -16 1 -18 6 -41 10 -52 9 -21 -8 -36 -44 -36 -23 0
-23 -1 -8 -18 10 -10 17 -24 17 -31 0 -9 6 -11 18 -6 30 13 57 11 57 -5 0 -11
-10 -14 -42 -12 -33 3 -44 -1 -56 -18 -8 -11 -21 -20 -28 -18 -8 2 -15 -10
-19 -31 -5 -33 -30 -57 -30 -29 -1 7 -7 -2 -15 -20 -17 -39 -32 -38 -56 4 -20
35 -8 74 16 54 19 -15 35 -4 35 23 -1 20 -1 21 -11 4 -10 -18 -12 -18 -34 3
l-23 21 -14 -20 c-16 -23 -28 -18 -28 11 0 22 -16 23 -38 2 -9 -10 -15 -30
-14 -50 3 -33 2 -34 -37 -34 -22 0 -43 -4 -46 -10 -3 -5 2 -10 11 -10 14 0 15
-3 6 -12 -8 -8 -5 -14 15 -25 14 -7 27 -13 29 -13 7 0 -1 25 -9 31 -5 4 2 9
16 13 13 3 28 16 32 28 6 19 8 20 12 6 2 -10 -3 -28 -11 -40 -9 -12 -16 -32
-16 -43 0 -18 6 -21 38 -21 34 0 37 -2 38 -30 1 -40 11 -54 39 -54 13 0 25 -5
27 -11 2 -6 23 -12 47 -15 27 -2 50 -11 61 -24 9 -11 20 -17 23 -13 4 3 23 6
44 7 31 1 38 5 43 26 7 29 10 29 68 10 29 -9 46 -10 50 -3 4 5 30 13 59 17 49
6 52 5 65 -21 8 -18 22 -29 38 -31 37 -4 111 -45 106 -58 -3 -7 4 -14 15 -17
10 -3 17 -2 14 3 -3 4 9 10 25 12 24 4 29 1 25 -11 -4 -13 5 -16 58 -16 34 0
68 4 76 9 8 5 16 4 21 -4 4 -7 13 -9 19 -5 7 4 17 3 24 -2 7 -5 40 -18 74 -28
43 -12 60 -22 56 -31 -3 -8 -9 -14 -15 -14 -5 0 -6 5 -2 11 4 7 1 10 -6 7 -25
-8 -21 -26 9 -36 16 -6 32 -8 34 -5 10 9 47 -8 47 -22 0 -7 7 -20 15 -29 11
-11 12 -17 3 -22 -6 -4 -14 -2 -16 4 -2 7 -16 12 -30 12 -23 -1 -25 -2 -12
-13 9 -7 14 -21 12 -32 -4 -17 -2 -18 12 -6 12 11 20 11 28 3 17 -17 -10 -45
-38 -39 -16 3 -24 -2 -27 -15 -5 -17 -9 -18 -27 -8 l-21 11 23 21 c13 11 22
24 20 29 -1 5 2 9 8 9 5 0 10 4 10 9 0 5 -12 8 -27 8 -16 0 -22 -2 -16 -4 17
-6 17 -33 1 -34 -33 -3 -85 4 -102 13 -14 7 -17 17 -12 39 4 23 2 29 -12 29
-11 0 -18 -9 -19 -27 0 -15 -6 -29 -12 -31 -18 -6 -13 -40 6 -38 12 1 18 -7
19 -23 1 -22 0 -23 -11 -8 -10 14 -14 15 -18 4 -6 -16 -64 -21 -72 -7 -11 17
14 48 33 43 37 -9 32 32 -8 74 -37 39 -58 45 -123 34 -19 -3 2 -26 28 -31 31
-5 47 -30 20 -30 -9 0 -14 4 -11 8 2 4 -7 8 -22 7 -20 0 -29 7 -36 30 -6 17
-15 34 -21 38 -5 5 2 6 18 3 15 -4 27 -2 27 4 0 5 -7 10 -15 10 -8 0 -15 3
-15 8 0 4 -19 7 -43 7 -49 -1 -114 24 -95 37 10 6 10 8 1 8 -7 0 -13 7 -13 15
0 13 -58 52 -65 43 -1 -2 -8 -13 -14 -25 -6 -13 -23 -26 -36 -29 -14 -3 -25
-10 -25 -15 0 -5 -3 -8 -7 -8 -23 4 -32 -3 -26 -18 4 -11 3 -14 -6 -9 -6 4
-10 15 -9 24 2 9 -5 18 -16 20 -10 2 -16 0 -12 -6 3 -6 0 -12 -6 -15 -9 -3 -6
-11 9 -24 13 -11 19 -24 15 -29 -4 -4 1 -2 11 6 11 8 21 10 25 4 4 -5 20 -20
35 -34 19 -17 26 -19 22 -8 -4 9 -13 19 -21 22 -19 7 -3 47 23 57 26 9 48 -4
40 -25 -7 -18 -27 -22 -27 -6 0 6 -5 10 -12 10 -8 0 -6 -6 5 -17 16 -16 18
-16 40 5 13 12 30 22 37 22 9 0 6 -6 -8 -16 -12 -8 -22 -24 -22 -35 0 -12 -7
-19 -20 -19 -25 0 -16 -26 11 -33 25 -7 25 -27 -1 -27 -13 0 -20 -7 -20 -19 0
-11 -4 -22 -10 -26 -5 -3 -7 -13 -4 -23 5 -16 5 -16 -6 0 -8 13 -20 17 -45 13
-19 -2 -35 0 -35 5 0 15 31 28 54 22 17 -4 19 -2 9 9 -17 18 -16 29 2 29 26 0
16 16 -21 33 -19 10 -33 21 -29 26 6 10 -14 9 -32 -2 -6 -4 -18 -4 -27 -1 -9
3 -16 2 -16 -4 0 -8 -14 -9 -38 -3 -1 1 2 11 9 23 10 18 9 20 -5 15 -8 -3 -18
-2 -21 3 -8 13 -42 7 -58 -9 -9 -10 -9 -14 4 -21 9 -5 24 -20 32 -34 15 -23
15 -24 -5 -18 -16 4 -19 2 -13 -8 6 -10 4 -12 -9 -7 -10 4 -20 7 -22 7 -2 0
-4 17 -4 38 0 37 -1 38 -35 37 -35 -2 -45 11 -24 32 8 8 5 14 -10 22 -12 7
-21 9 -21 5 0 -3 -6 -1 -14 5 -12 10 -17 8 -25 -7 -6 -11 -7 -23 -3 -27 4 -4
-4 -5 -18 -3 -14 2 -24 9 -22 16 2 10 -2 10 -18 2 -11 -6 -18 -15 -15 -19 2
-5 -5 -11 -17 -14 -26 -7 -38 1 -19 12 10 6 8 10 -5 15 -12 4 -14 10 -8 14 6
4 16 16 22 27 9 19 7 20 -37 21 l-47 0 0 -38 c0 -21 3 -38 8 -38 4 0 8 -5 8
-11 0 -5 -4 -8 -9 -4 -5 3 -15 0 -23 -7 -7 -7 -22 -20 -33 -28 -20 -14 -20
-14 -2 6 17 21 17 22 0 26 -10 2 -29 1 -43 -3 -17 -5 -19 -7 -7 -8 10 -1 21
-9 24 -18 4 -10 15 -24 25 -31 10 -7 18 -19 18 -27 0 -7 6 -16 13 -19 6 -3 1
-4 -13 -3 -16 1 -24 7 -23 17 2 13 -14 15 -99 14 -86 -1 -104 2 -120 18 -10
10 -23 16 -28 13 -6 -4 -10 0 -10 8 0 18 -39 67 -40 50 0 -6 4 -14 9 -18 5 -3
9 -19 9 -36 -1 -31 18 -51 72 -76 14 -6 19 -12 11 -12 -10 -1 -11 -4 -2 -14
14 -18 2 -31 -13 -14 -6 7 -10 10 -9 8 4 -7 -28 -63 -34 -58 -2 3 0 15 6 26
10 17 7 25 -19 47 -16 15 -30 34 -30 42 0 9 -6 12 -16 8 -8 -3 -12 -2 -9 4 3
6 -3 10 -13 10 -11 0 -22 -7 -26 -15 -3 -8 -13 -15 -22 -15 -14 0 -13 4 6 20
13 11 31 20 41 20 10 0 20 4 24 9 3 6 -7 6 -27 0 -41 -11 -51 -11 -44 0 3 5 0
11 -7 14 -10 4 -13 -2 -9 -18 5 -27 -26 -97 -39 -89 -5 3 -9 1 -9 -4 0 -5 -14
-9 -30 -10 -17 0 -30 4 -30 9 0 5 -8 9 -17 9 -15 0 -16 -2 -3 -10 8 -5 11 -10
6 -10 -6 0 -21 11 -36 25 -17 17 -30 21 -39 15 -12 -7 -13 -11 -1 -24 19 -24
6 -30 -29 -11 -32 16 -41 27 -18 22 7 -1 11 6 9 16 -2 9 1 16 5 15 4 -1 20 6
36 16 19 13 24 22 18 30 -16 19 2 35 32 29 16 -3 27 -12 27 -21 0 -12 3 -13
12 -4 7 7 23 12 36 12 13 0 20 4 17 10 -3 6 1 13 9 16 24 9 19 23 -11 30 -16
4 -46 17 -69 30 -50 29 -61 30 -69 3 -9 -26 12 -42 36 -28 25 13 35 11 21 -3
-7 -7 -18 -13 -25 -13 -7 0 -16 -10 -22 -22 -5 -13 -13 -23 -17 -23 -7 0 -12
39 -9 66 3 25 -48 23 -52 -2 -1 -5 -7 -8 -14 -8 -7 1 -15 -6 -18 -16 -3 -10
-12 -21 -20 -24 -8 -3 -16 -16 -16 -28 -1 -15 -3 -18 -6 -7 -5 19 -40 32 -49
18 -3 -5 2 -12 10 -15 12 -5 14 -15 10 -45 -5 -32 -4 -39 10 -39 9 0 21 9 28
19 6 10 18 17 25 14 7 -3 13 0 13 6 0 6 4 11 8 11 10 0 9 -86 -1 -96 -4 -4 -2
-13 5 -21 8 -11 7 -12 -6 -7 -12 5 -15 2 -10 -10 3 -9 10 -13 15 -10 5 3 6 -1
3 -9 -7 -20 -71 -20 -78 -1 -4 11 -14 14 -27 11 -16 -4 -18 -3 -9 8 7 9 8 15
1 20 -7 4 -3 14 9 27 24 26 20 34 -9 18 -18 -9 -21 -20 -21 -70 0 -45 4 -62
17 -70 17 -11 17 -11 1 -6 -16 5 -18 -2 -17 -67 0 -43 3 -64 8 -53 7 19 8 19
15 1 5 -13 2 -23 -8 -31 -9 -6 -16 -20 -15 -30 0 -11 3 -14 6 -6 4 10 8 10 18
2 10 -9 11 -18 4 -37 -5 -14 -7 -28 -5 -31 3 -2 -1 -17 -9 -33 -17 -32 -20
-85 -5 -94 6 -3 10 -11 10 -16 0 -6 -4 -7 -10 -4 -21 13 -8 -7 22 -34 34 -30
32 -55 -1 -34 -16 10 -20 8 -25 -10 -3 -12 -5 -33 -5 -47 1 -16 3 -19 6 -8 2
9 14 20 26 23 12 4 32 19 45 33 20 23 23 24 20 7 -2 -16 2 -19 21 -17 27 3 41
-12 41 -45 0 -26 -15 -31 -24 -8 -3 8 -11 15 -18 15 -9 0 -9 -3 2 -10 12 -7
10 -12 -10 -30 -14 -12 -31 -18 -42 -14 -13 4 -18 0 -19 -13 0 -15 -2 -15 -11
4 -18 38 -38 37 -38 -3 0 -19 4 -33 9 -30 5 3 11 -3 14 -14 6 -24 -2 -60 -14
-60 -5 0 -9 -50 -9 -110 0 -90 3 -112 15 -116 8 -4 22 -1 29 5 11 9 15 9 18
-1 4 -11 8 -11 20 0 11 9 23 10 40 3 28 -11 45 -41 24 -41 -8 0 -16 5 -18 11
-3 8 -19 10 -52 5 -26 -4 -46 -9 -44 -12 3 -2 110 -24 239 -49 129 -24 254
-49 279 -54 63 -14 308 -60 350 -66 39 -5 58 -9 80 -17 8 -3 42 -10 75 -16 33
-6 114 -22 180 -36 66 -14 221 -44 345 -66 124 -23 263 -48 310 -57 47 -9 108
-17 137 -17 28 -1 47 -4 41 -7 -5 -4 11 -10 37 -14 26 -3 55 -9 64 -12 14 -4
14 -3 1 7 -12 9 -8 11 19 6 18 -3 41 -6 50 -6 12 0 13 -2 3 -9 -9 -5 4 -11 38
-18 47 -10 60 -1 15 10 -40 10 72 7 130 -4 33 -5 74 -12 90 -14 17 -3 41 -7
55 -10 42 -10 134 -27 148 -27 6 -1 12 -5 12 -10 0 -4 16 -8 35 -8 34 0 47
-13 22 -23 -7 -3 -5 -6 6 -6 9 -1 17 4 17 9 0 7 26 9 73 6 39 -3 135 -10 212
-15 153 -11 823 -15 848 -5 9 3 14 13 10 22 -4 13 -3 14 5 3 5 -7 18 -11 28
-7 11 3 34 8 53 11 30 5 138 57 198 95 31 20 40 44 13 37 -11 -3 -23 -1 -26 5
-4 5 -21 7 -40 4 -28 -6 -33 -4 -31 13 0 10 6 17 12 15 16 -6 52 29 59 58 l6
27 -32 -14 c-18 -8 -32 -19 -31 -25 2 -5 -2 -10 -7 -10 -13 0 -13 17 0 25 6 4
8 10 5 15 -3 4 2 13 10 20 10 9 15 9 15 1 0 -6 7 -11 15 -11 8 0 15 4 15 9 0
5 14 2 32 -6 32 -16 66 -8 61 15 -1 6 5 13 13 16 11 4 18 -1 21 -14 4 -16 14
-20 45 -20 23 0 37 -4 33 -10 -11 -17 13 -11 48 13 62 42 89 66 83 75 -9 14
-45 21 -52 10 -3 -5 -26 -18 -51 -29 -38 -16 -46 -17 -59 -5 -18 19 -18 30 1
23 21 -8 27 7 15 38 -8 22 -13 24 -29 15 -25 -13 -31 -13 -31 0 0 6 9 10 20
10 13 0 25 11 34 34 8 18 19 37 25 41 9 5 9 10 1 21 -14 15 -4 94 11 94 6 0 9
21 7 48 -2 33 -9 52 -24 64 -12 10 -24 32 -28 50 -3 19 -17 42 -31 52 -31 24
-34 66 -4 73 16 4 17 8 7 14 -10 7 -9 12 6 26 14 14 17 14 14 3 -5 -16 19 -46
29 -36 3 3 0 12 -7 21 -10 12 -10 15 1 16 23 1 -36 22 -81 28 -3 1 -6 19 -7
41 -2 57 -5 70 -15 64 -4 -3 -8 0 -8 6 0 6 -4 8 -10 5 -5 -3 -10 -2 -10 2 0
16 -36 32 -51 21 -11 -8 -11 -9 3 -5 18 6 31 -15 22 -37 -3 -8 -19 -19 -35
-25 -26 -9 -29 -8 -29 10 0 13 7 19 23 20 12 0 16 3 10 6 -7 2 -13 9 -13 14 0
17 -37 47 -50 39 -7 -4 -9 -13 -6 -19 4 -6 2 -11 -4 -11 -7 0 -10 -6 -7 -14 6
-15 -11 -36 -29 -36 -7 0 -16 9 -19 20 -3 11 -15 20 -25 20 -10 0 -22 5 -26
12 -5 8 -10 2 -15 -16 -6 -22 -2 -37 17 -67 25 -39 50 -49 72 -27 9 9 12 9 12
1 0 -7 -9 -15 -20 -18 -28 -9 -25 -32 6 -39 15 -4 24 -10 21 -13 -4 -3 3 -13
15 -23 17 -13 19 -22 13 -46 l-7 -29 -10 28 c-5 15 -16 27 -24 27 -8 0 -14 4
-14 9 0 5 -15 15 -34 22 -19 7 -37 21 -40 32 -3 14 -10 17 -25 12 -15 -4 -21
-2 -21 9 0 9 6 13 14 10 8 -3 17 -1 21 5 3 6 1 11 -5 11 -6 0 -8 5 -5 10 3 6
-5 14 -18 19 -14 6 -28 15 -33 22 -4 8 -3 10 4 5 7 -4 12 -3 12 3 0 5 -6 12
-12 14 -10 4 -10 6 0 6 21 1 50 33 34 39 -7 2 -10 7 -7 12 3 4 -4 10 -15 13
-11 3 -20 2 -20 -2 0 -4 -10 -7 -21 -8 -29 -3 -43 -18 -35 -38 4 -11 12 -14
26 -10 19 6 27 -5 13 -19 -14 -13 -12 -44 2 -50 8 -3 15 -1 15 4 0 6 5 10 10
10 6 0 10 -14 10 -31 0 -18 -4 -28 -10 -24 -6 4 -8 10 -5 15 7 11 -24 22 -38
13 -7 -3 -9 -3 -5 2 11 11 -12 36 -25 28 -5 -3 -7 -1 -3 5 14 23 -15 22 -46
-1 -31 -23 -73 -33 -62 -15 3 4 0 8 -7 8 -7 0 -4 6 6 14 11 8 23 12 26 10 4
-2 12 3 19 12 10 11 10 18 2 26 -7 7 -12 20 -12 29 0 12 -7 17 -22 15 -39 -6
-58 -17 -58 -37 0 -17 3 -18 23 -8 19 11 20 10 10 -3 -7 -8 -10 -17 -8 -20 3
-3 -5 -13 -19 -21 -29 -19 -37 -7 -25 35 9 32 2 41 -22 27 -21 -11 -59 7 -59
27 0 7 -7 15 -17 18 -15 6 -14 8 2 20 17 12 14 14 -26 29 -44 16 -108 19 -110
5 -1 -5 -3 -12 -4 -18 -1 -5 -3 -14 -4 -20 0 -5 -8 -7 -16 -4 -13 5 -13 8 0
21 18 18 20 27 3 16 -24 -14 -41 -11 -67 13 -14 13 -30 24 -36 24 -5 0 -2 5 8
11 13 7 22 7 31 0 7 -6 16 -7 21 -3 4 4 4 -3 0 -16 -6 -21 -4 -22 22 -16 27 6
56 24 39 24 -5 0 -3 6 3 14 12 14 51 10 51 -5 0 -5 9 -4 19 3 11 7 18 15 16
18 -2 3 12 4 31 2 22 -3 34 0 34 8 0 7 -6 10 -14 7 -8 -3 -17 0 -19 7 -4 9 4
13 21 14 52 0 60 2 65 17 5 11 1 12 -19 5 -14 -6 -36 -7 -50 -4 -17 4 -26 1
-31 -11 -6 -17 -7 -17 -20 1 -13 18 -14 18 -19 -3 -9 -32 -76 -40 -115 -13
-16 12 -29 30 -29 40 0 18 1 18 29 2 16 -9 27 -20 25 -24 -3 -4 3 -5 12 -1 12
4 14 8 6 11 -10 3 -10 7 -2 18 7 7 9 18 5 24 -15 24 -124 -19 -152 -59 -14
-21 -53 -29 -53 -11 0 5 5 9 11 7 6 -1 19 12 29 28 16 28 16 31 -1 42 -22 16
-14 47 17 63 13 8 24 17 24 22 0 5 11 6 25 4 14 -3 25 0 25 6 0 5 7 8 15 4 8
-3 14 -2 14 2 -3 19 2 25 10 13 8 -12 12 -12 24 -2 9 7 36 14 62 16 44 5 46 4
40 -17 -7 -20 -5 -21 34 -15 22 3 41 1 41 -3 0 -5 3 -15 6 -23 3 -10 -4 -17
-22 -21 l-27 -7 29 -15 c27 -14 29 -14 47 10 21 29 37 34 37 11 0 -13 4 -12
21 4 14 13 19 26 14 40 -7 24 -13 25 -50 11 -33 -13 -50 -4 -30 16 8 9 19 13
24 10 5 -3 14 1 21 9 10 12 10 18 0 30 -7 8 -18 15 -25 15 -21 0 -39 30 -37
61 1 16 -5 40 -14 54 -9 14 -14 31 -11 39 7 16 -16 28 -38 20 -8 -3 -19 -3
-26 1 -6 4 -32 9 -58 10 -67 3 -116 18 -116 35 0 8 -8 21 -18 28 -17 13 -17
15 -1 26 13 10 14 15 5 20 -7 5 -15 5 -18 2 -3 -3 -12 -1 -20 5 -10 9 -13 8
-13 -4 0 -10 -6 -14 -15 -11 -8 4 -15 10 -15 15 0 4 -11 20 -25 35 -33 36 -32
44 8 42 17 -1 40 2 50 6 12 6 17 4 17 -7 0 -13 6 -14 30 -7 18 5 32 5 35 -1 4
-5 22 -9 42 -9 20 0 44 -6 52 -14 11 -9 29 -12 59 -7 53 8 55 23 5 34 -21 4
-43 14 -50 23 -9 12 -16 13 -31 5 -13 -7 -22 -7 -31 2 -9 9 -17 8 -33 -2 -19
-12 -24 -11 -40 9 -15 19 -19 20 -24 6 -5 -14 -9 -14 -34 4 -15 11 -35 20 -43
20 -9 0 -18 4 -21 9 -11 17 6 41 28 41 20 1 20 1 -3 14 -18 10 -30 11 -42 3
-19 -12 -53 -2 -44 13 3 6 -4 10 -18 10 -14 0 -27 7 -31 15 -6 17 -36 9 -36
-9 0 -7 -16 -11 -40 -11 -33 0 -40 -3 -40 -19 0 -14 3 -17 11 -9 11 11 49 6
49 -6 -1 -16 -18 -30 -45 -37 -26 -6 -27 -8 -10 -15 11 -4 14 -8 8 -8 -7 -1
-13 -5 -13 -10 0 -13 49 -20 57 -8 3 6 12 2 20 -9 8 -10 17 -18 21 -17 4 2 15
0 25 -3 14 -4 17 -12 13 -30 -6 -21 -3 -24 21 -23 l28 1 -25 8 c-17 5 -19 8
-7 9 9 1 17 8 17 16 0 18 12 19 27 4 7 -7 7 -17 -1 -35 -13 -28 -51 -32 -95
-9 -27 13 -29 13 -34 -5 -3 -11 -1 -23 4 -26 5 -3 9 1 9 8 0 8 5 6 11 -5 8
-13 7 -22 -3 -34 -12 -15 -11 -15 8 -5 19 10 23 9 27 -8 5 -20 37 -29 37 -10
0 6 -4 10 -10 10 -5 0 -10 7 -10 16 0 14 3 14 15 4 9 -7 34 -13 57 -12 31 2
39 -1 34 -13 -8 -22 15 -30 30 -10 13 17 15 17 36 -10 29 -37 31 -55 7 -55
-11 0 -17 5 -14 10 4 6 3 10 -2 9 -21 -4 -34 2 -27 12 4 7 1 10 -6 7 -17 -5
-33 -48 -18 -48 17 0 58 -49 57 -68 0 -12 -3 -11 -9 6 -6 13 -19 23 -32 24
-55 4 -64 3 -74 -7 -5 -5 -13 -18 -17 -27 -9 -25 -26 -22 -36 4 -10 27 5 56
30 60 16 3 16 5 3 23 -15 20 -15 20 -30 0 -13 -17 -16 -18 -24 -5 -5 8 -10 19
-10 24 0 5 -3 6 -6 3 -21 -20 -104 69 -88 95 5 7 3 8 -6 3 -10 -6 -12 -4 -7 9
4 10 3 15 -3 11 -6 -3 -10 0 -10 7 0 9 -3 9 -10 -2 -9 -13 -11 -13 -20 0 -16
25 -11 49 12 61 l22 12 -24 9 c-13 5 -43 6 -66 2 -31 -4 -49 -2 -65 10 -21 14
-21 16 -4 22 12 5 22 1 31 -11 12 -15 14 -16 14 -3 0 8 7 21 15 28 8 7 15 23
15 36 0 18 6 23 33 26 17 2 31 8 29 13 -2 6 -18 9 -36 7 -18 -1 -46 2 -61 8
-31 12 -50 -2 -40 -29 4 -9 -1 -12 -14 -8 -14 3 -17 0 -14 -14 3 -11 1 -19 -5
-19 -5 0 -12 9 -15 20 -4 15 -10 18 -24 13 -17 -7 -17 -8 0 -11 15 -3 15 -6
-5 -22 -21 -17 -21 -19 -5 -25 9 -4 23 -5 31 -2 16 6 29 -40 15 -49 -5 -3 -9
2 -9 11 0 11 -5 15 -16 11 -9 -3 -25 4 -41 20 -14 14 -31 23 -39 20 -8 -3 -14
-1 -14 4 0 13 -83 -18 -93 -35 -11 -20 -28 -19 -20 1 3 9 0 20 -8 24 -21 14
-3 24 44 24 34 1 44 5 52 24 8 17 16 21 33 17 12 -3 23 -2 23 2 6 36 5 53 -5
52 -6 -1 -20 -1 -31 0 -17 1 -15 5 15 29 34 27 96 46 105 32 9 -14 88 -3 97
14 5 9 16 16 25 16 13 0 14 3 5 12 -7 7 -12 16 -12 20 0 12 58 10 65 -2 9 -15
25 -12 25 4 0 16 36 31 135 56 22 5 52 12 68 15 18 4 27 12 27 25 0 24 3 24
-50 5 -47 -17 -154 -19 -213 -6 -36 9 -71 39 -108 93 -11 16 -40 30 -92 45
-79 24 -137 63 -137 93 0 26 12 28 136 22 96 -4 119 -2 178 18 129 43 275 131
324 196 25 34 39 44 61 44 36 0 56 -22 43 -47 -6 -10 -12 -34 -13 -53 -3 -27
0 -35 14 -38 23 -5 47 16 72 65 11 21 26 44 33 51 7 8 10 18 7 23 -4 5 -1 9 4
9 6 0 11 6 11 14 0 8 7 28 15 45 8 17 22 45 30 62 8 17 18 48 21 70 4 21 10
36 15 33 5 -3 13 6 18 20 10 25 27 27 76 6 24 -10 199 -20 226 -13 34 9 20 29
-39 57 -50 24 -67 27 -118 23 -32 -3 -74 -8 -91 -12 -32 -7 -33 -6 -33 24 0
35 -3 34 95 32 51 -1 81 4 110 18 40 19 38 19 -812 20 l-852 1 24 -25 c28 -27
33 -84 11 -123 -11 -20 -10 -29 7 -64 17 -34 18 -45 8 -78 -6 -22 -21 -46 -33
-54 l-21 -15 22 -27 c43 -55 10 -121 -56 -111 -47 8 -83 33 -83 58 0 11 13 33
29 49 l28 29 -51 18 c-46 16 -51 21 -54 51 -2 19 5 50 16 72 14 28 18 53 14
92 -3 45 0 59 22 91 l25 37 -1054 0 -1054 0 0 -352z m3076 200 c9 -7 17 -7 26
0 13 11 106 10 125 -2 7 -4 12 -17 12 -30 0 -31 -34 -45 -96 -39 -31 3 -60 0
-75 -7 -26 -14 -120 -13 -268 2 -29 4 -49 46 -25 55 8 3 18 3 21 -1 3 -3 12
-1 19 4 29 25 236 39 261 18z m-2042 -1328 c-4 -7 3 -9 22 -5 15 3 23 3 17 0
-13 -6 -6 -55 7 -55 5 0 9 -9 9 -20 0 -11 -4 -20 -10 -20 -5 0 -9 5 -7 11 1 6
-4 14 -11 16 -11 4 -12 1 -3 -16 7 -11 8 -21 4 -21 -4 0 0 -5 10 -11 9 -5 17
-14 17 -18 0 -12 -92 -12 -110 -1 -13 8 -12 10 3 10 9 0 17 4 17 9 0 12 -37
24 -48 17 -5 -3 -9 0 -10 7 0 7 -3 26 -6 43 -4 29 -3 31 21 26 18 -3 24 -1 19
7 -5 7 1 11 14 11 11 0 23 -7 26 -15 4 -8 11 -15 16 -15 6 0 5 6 -2 15 -10 13
-7 35 6 35 3 0 2 -5 -1 -10z m2262 -435 c0 -8 -4 -12 -8 -9 -4 2 -10 0 -14 -6
-3 -5 -17 -10 -31 -10 -18 0 -24 -5 -24 -21 0 -11 4 -18 9 -15 4 3 17 -1 27
-10 18 -14 18 -15 -6 -8 -37 10 -49 10 -47 -1 1 -5 11 -9 22 -8 17 2 16 0 -5
-12 -24 -14 -24 -14 -3 -15 12 0 28 -7 37 -15 8 -9 17 -14 20 -13 2 2 8 0 12
-4 4 -5 2 -8 -5 -8 -7 0 -9 -4 -6 -10 3 -5 2 -10 -4 -10 -5 0 -13 5 -16 10 -4
6 -10 8 -15 5 -5 -3 -14 4 -21 16 -9 17 -13 19 -20 8 -4 -7 -4 -18 2 -25 6 -8
5 -14 -6 -18 -9 -3 -15 0 -15 9 0 18 1 18 -38 4 -18 -6 -30 -15 -27 -20 3 -4
-10 -2 -29 6 -32 14 -34 13 -29 -4 6 -22 -16 -39 -26 -22 -10 16 -91 10 -91
-6 0 -7 -4 -13 -9 -13 -4 0 -6 11 -3 25 4 25 32 36 32 13 0 -7 5 -5 11 5 5 9
17 17 24 17 8 0 15 4 15 9 0 6 18 9 40 9 27 0 40 -5 40 -14 0 -9 7 -7 22 8 12
12 23 17 25 11 2 -5 15 -8 28 -5 22 4 24 8 19 35 -6 36 -21 57 -40 57 -17 0
-25 15 -18 33 4 12 20 14 74 11 51 -3 71 0 80 11 15 19 17 19 17 0z m-437
-167 c0 -4 10 -8 21 -8 18 0 19 -2 9 -15 -7 -8 -20 -15 -28 -15 -12 0 -11 -4
6 -16 33 -23 29 -48 -5 -40 -16 4 -34 7 -40 8 -7 1 -13 5 -13 10 0 5 -10 6
-22 3 -23 -7 -23 -7 -3 8 19 15 18 15 -15 10 -19 -3 -37 -8 -40 -11 -3 -4 -20
-15 -37 -25 -29 -16 -32 -16 -27 -2 6 13 -1 16 -40 14 -25 -2 -49 0 -52 4 -4
4 -2 7 4 7 7 0 12 7 12 15 0 11 11 15 39 15 22 0 52 5 67 10 19 8 30 8 38 0
15 -15 24 -12 22 7 -1 13 9 19 34 24 46 7 70 6 70 -3z m-2666 -100 c-4 -50 5
-72 22 -57 8 6 28 13 44 15 23 3 30 0 30 -14 0 -10 -5 -23 -11 -29 -7 -7 -3
-15 15 -26 24 -16 25 -16 31 13 5 21 11 27 22 23 11 -4 14 -2 9 5 -9 15 -1 15
26 1 20 -11 19 -12 -11 -26 -41 -20 -39 -29 5 -31 37 -1 64 -16 64 -35 0 -5 8
-16 18 -24 16 -13 15 -14 -8 -8 -64 17 -73 18 -66 7 4 -7 2 -21 -4 -32 -9 -16
-8 -20 5 -20 8 0 14 -3 13 -7 0 -5 2 -16 7 -26 14 -32 -5 -31 -32 1 -29 36
-48 41 -55 14 -4 -15 -14 -18 -47 -16 -34 2 -41 -1 -39 -15 2 -9 12 -15 24
-14 17 2 20 -4 19 -36 0 -22 -3 -37 -7 -34 -5 2 -8 11 -8 19 0 8 -7 14 -15 14
-8 0 -12 6 -9 14 3 8 -4 16 -19 20 -13 3 -29 17 -35 31 -6 14 -16 25 -22 25
-15 0 -12 26 5 40 10 9 15 9 15 1 0 -6 -5 -11 -11 -11 -8 0 -8 -5 1 -15 7 -8
17 -15 22 -15 14 0 22 31 9 39 -8 6 -8 15 0 39 13 37 6 62 -16 62 -12 0 -15 6
-10 21 5 13 3 19 -3 15 -6 -3 -12 10 -15 32 -4 29 0 41 15 55 26 22 25 23 22
-15z m3122 -82 c-38 -33 -38 -33 -20 -54 10 -12 25 -22 32 -22 12 0 12 -3 2
-15 -11 -13 -15 -13 -21 -3 -7 10 -9 10 -9 -2 0 -12 -2 -12 -9 -2 -6 10 -10
10 -21 -3 -7 -8 -18 -15 -26 -15 -7 0 -17 -6 -21 -12 -4 -7 -18 -13 -30 -14
-15 0 -20 3 -14 10 12 16 7 54 -9 69 -12 10 -12 9 -2 -4 10 -13 9 -19 -1 -28
-8 -6 -17 -8 -20 -4 -4 3 -7 1 -7 -5 0 -7 -4 -12 -10 -12 -5 0 -10 7 -10 15 0
8 8 15 18 15 15 0 20 27 13 69 -1 3 -8 -4 -16 -15 -17 -22 -20 -12 -5 17 10
17 13 18 26 4 12 -11 20 -12 35 -5 15 8 19 7 19 -5 0 -8 -4 -15 -10 -15 -5 0
-10 -4 -10 -9 0 -15 50 1 64 21 8 11 19 17 25 13 6 -3 11 -2 11 4 0 16 30 41
48 41 12 -1 5 -11 -22 -34z"/>
<path d="M4368 3263 c-1 -5 -23 -25 -47 -46 l-43 -39 78 7 c154 14 259 34 309
59 l50 25 -172 0 c-94 1 -173 -2 -175 -6z"/>
<path d="M4134 3046 c-39 -40 -75 -82 -78 -94 -4 -12 -18 -30 -32 -41 -13 -10
-24 -24 -24 -30 0 -6 -4 -11 -8 -11 -4 0 -9 -12 -10 -26 -1 -14 -9 -32 -18
-41 -17 -17 -16 -39 6 -123 7 -25 13 -85 13 -134 2 -83 0 -90 -23 -108 -27
-21 -26 -22 35 -55 42 -22 54 -42 55 -85 0 -30 4 -38 26 -45 29 -10 153 4 270
30 82 19 227 33 405 42 108 5 138 3 207 -14 44 -12 99 -21 121 -21 l41 0 0
166 c0 154 -1 166 -17 158 -24 -10 -84 -7 -95 4 -25 25 41 78 86 70 l26 -5 0
180 c0 171 -1 179 -17 164 -10 -8 -29 -17 -43 -19 -21 -2 -28 4 -45 39 -11 24
-27 42 -37 43 -9 0 -19 6 -21 13 -4 8 -8 9 -14 1 -7 -9 -27 -13 -65 -14 -7 0
-44 3 -81 6 -45 4 -72 3 -80 -5 -6 -6 -31 -11 -54 -11 -49 0 -87 -16 -120 -52
-20 -21 -21 -29 -13 -58 6 -19 10 -41 10 -47 0 -16 -47 -17 -52 -1 -6 16 -38
2 -38 -16 0 -32 21 -67 47 -78 36 -15 83 -58 83 -75 0 -14 -40 -37 -82 -47
-19 -4 -31 -1 -40 11 -7 10 -22 23 -33 29 -28 15 -75 103 -125 230 -49 126
-60 144 -80 143 -8 -1 -47 -34 -86 -73z"/>
<path d="M3710 2763 c0 -16 7 -52 15 -82 12 -45 26 -66 82 -123 62 -62 93 -82
93 -59 0 5 -20 32 -45 59 -27 29 -53 73 -64 104 -28 80 -53 128 -68 128 -8 0
-13 -11 -13 -27z"/>
<path d="M3383 2463 l-34 -38 25 -20 c14 -11 39 -30 56 -43 16 -13 30 -30 30
-38 0 -20 14 -17 35 6 16 18 17 26 7 68 -19 85 -29 102 -58 102 -18 0 -38 -12
-61 -37z"/>
<path d="M452 2390 c-20 -9 -21 -12 -10 -32 7 -12 22 -30 33 -39 19 -16 19
-18 3 -24 -10 -4 -15 -11 -12 -16 3 -5 10 -7 15 -4 14 9 11 -5 -6 -21 -21 -21
-19 -34 5 -34 11 0 20 5 20 10 0 6 7 10 15 10 8 0 15 -9 15 -20 0 -23 18 -27
26 -5 7 17 -14 48 -26 40 -4 -3 -11 2 -14 11 -6 15 17 43 35 44 9 0 20 -30 14
-39 -2 -5 7 -13 21 -19 20 -10 26 -9 30 3 4 8 12 15 20 15 8 0 14 3 14 8 -1
18 -18 30 -54 36 -44 7 -58 14 -51 25 2 5 -2 17 -10 27 -11 15 -16 17 -26 7
-19 -19 -32 -16 -26 7 6 22 3 23 -31 10z"/>
<path d="M363 2230 c-20 -8 -21 -12 -12 -33 8 -17 17 -23 30 -20 14 4 19 0 19
-17 0 -19 -2 -20 -15 -10 -12 10 -15 10 -15 0 0 -7 -6 -10 -14 -7 -7 3 -24 -2
-37 -10 -17 -13 -20 -13 -14 -2 4 8 -3 4 -15 -8 -21 -20 -22 -23 -6 -38 17
-18 19 -28 10 -62 -6 -21 -8 -21 -29 -7 -13 8 -26 11 -29 6 -3 -4 17 -16 45
-26 39 -14 62 -17 107 -10 31 4 49 9 40 11 -10 3 -18 9 -18 14 0 16 29 22 45
9 9 -7 18 -11 20 -8 6 6 9 50 4 63 -2 6 0 11 5 12 15 3 46 57 46 81 0 20 -14
28 -42 23 -5 0 -17 8 -29 20 -16 16 -23 18 -35 9 -11 -10 -15 -9 -20 4 -7 18
-10 18 -41 6z"/>
<path d="M658 2188 c20 -20 14 -26 -23 -23 -19 2 -35 -1 -35 -7 0 -5 -6 -8
-14 -5 -8 3 -17 -1 -20 -9 -3 -8 -12 -14 -21 -14 -19 0 -20 -19 -1 -26 8 -3
13 -11 11 -17 -3 -7 2 -20 10 -31 19 -25 118 -26 145 -1 17 16 21 16 34 2 9
-8 21 -17 27 -19 9 -3 9 -9 0 -26 -8 -14 -8 -22 -1 -22 5 0 10 7 10 15 0 8 9
15 20 15 11 0 20 5 20 10 0 6 -5 10 -10 10 -6 0 -21 9 -32 20 -20 19 -21 22
-6 36 18 18 42 10 34 -11 -2 -7 2 -16 10 -19 9 -4 14 1 14 14 0 11 5 20 12 20
14 0 -7 24 -22 26 -6 1 -15 2 -21 3 -5 0 -8 5 -4 11 6 10 -29 50 -45 50 -5 0
-10 -5 -10 -12 0 -6 -7 -4 -18 5 -22 20 -83 24 -64 5z"/>
<path d="M4795 2003 c-93 -7 -177 -17 -185 -21 -8 -5 -37 -7 -65 -5 l-50 3 73
-37 c52 -26 89 -37 125 -39 54 -2 142 -35 150 -57 2 -6 0 -20 -5 -30 -7 -13
-2 -27 21 -56 34 -43 65 -51 192 -51 l69 0 0 154 0 154 -77 -2 c-43 0 -154 -6
-248 -13z"/>
<path d="M4080 1805 c-5 -14 -14 -25 -19 -25 -5 0 -11 -9 -14 -20 -6 -23 -35
-27 -43 -6 -4 11 -10 11 -30 2 -13 -6 -24 -15 -24 -21 0 -18 18 -38 28 -31 6
3 14 1 18 -5 4 -7 -5 -23 -23 -39 -17 -15 -33 -39 -37 -54 -3 -15 -15 -35 -26
-46 -11 -11 -20 -24 -20 -30 0 -5 -4 -10 -10 -10 -5 0 -10 -6 -10 -14 0 -8 -7
-17 -16 -20 -14 -5 -12 -10 10 -27 14 -11 31 -17 36 -14 6 4 17 1 25 -5 11 -9
15 -9 15 -1 0 6 19 11 46 11 37 0 52 -5 69 -24 12 -14 19 -28 15 -33 -4 -4
-11 -18 -15 -30 -5 -18 -2 -23 12 -23 10 0 29 -7 41 -16 12 -8 28 -14 34 -12
18 6 19 57 0 67 -13 7 -14 12 -4 24 10 11 6 22 -17 55 -16 22 -34 43 -40 47
-16 9 -13 51 4 65 21 18 54 2 70 -33 41 -97 47 -118 43 -141 -6 -29 19 -40 61
-25 24 9 32 6 61 -21 34 -32 45 -36 55 -21 7 12 78 1 87 -13 4 -6 22 -11 39
-11 37 0 51 -22 17 -27 -35 -5 -28 -31 13 -43 20 -5 42 -15 50 -21 8 -7 23
-14 34 -16 16 -3 21 -14 26 -60 6 -57 33 -97 67 -98 6 0 12 -4 12 -10 0 -5 11
-10 25 -10 17 0 29 8 37 25 7 15 20 25 32 25 19 0 0 14 -90 66 -24 15 -20 43
12 71 23 21 54 79 54 102 0 19 -32 41 -58 41 -30 0 -58 33 -53 63 1 9 -6 20
-16 24 -10 3 -24 11 -31 16 -7 6 -27 12 -45 14 -41 4 -47 12 -54 63 -7 47 -23
59 -56 38 -12 -8 -39 -18 -59 -21 -35 -5 -38 -4 -44 21 -10 48 -13 51 -46 60
-39 10 -50 45 -20 61 11 6 22 8 25 5 4 -5 42 10 55 22 2 1 -6 16 -18 32 -21
29 -23 29 -107 26 -82 -3 -87 -2 -121 26 -44 36 -50 37 -62 5z m40 -70 c40
-21 68 -111 44 -142 -13 -17 -15 -17 -28 0 -7 9 -18 17 -25 17 -6 0 -11 4 -11
10 0 5 -11 12 -24 16 -33 8 -68 47 -60 67 3 10 12 17 19 17 7 0 18 7 25 15 16
19 24 19 60 0z"/>
<path d="M4566 1802 c-9 -14 43 -81 67 -87 24 -7 69 -63 61 -77 -3 -4 -14 -8
-25 -8 -23 0 -25 -13 -4 -34 23 -23 18 -36 -15 -36 -16 0 -30 -4 -30 -10 0 -5
8 -10 18 -10 10 0 41 -22 69 -49 55 -52 89 -65 117 -42 13 11 20 11 28 3 25
-25 38 -13 38 37 l0 49 -47 9 c-47 8 -48 9 -48 46 0 41 -28 71 -39 42 -3 -8
-12 -15 -21 -15 -17 0 -20 21 -5 36 6 6 0 21 -19 42 -16 17 -32 41 -36 52 -6
18 -11 21 -32 19 -4 0 -10 9 -15 20 -7 21 -51 30 -62 13z"/>
<path d="M4950 1640 c0 -30 66 -91 108 -101 62 -14 62 -15 62 56 l0 65 -85 0
c-79 0 -85 -1 -85 -20z"/>
<path d="M4513 908 c-5 -7 -16 -28 -23 -47 -13 -32 -12 -35 8 -49 22 -15 30
-42 12 -42 -13 0 -13 -47 0 -55 18 -11 139 74 146 102 8 29 -8 43 -37 36 -10
-3 -19 0 -19 6 0 15 -30 14 -31 -1 0 -7 -5 2 -12 21 -13 38 -29 48 -44 29z"/>
<path d="M4854 505 c-44 -52 -80 -99 -82 -103 -3 -10 148 -32 221 -32 36 0 67
6 82 16 13 9 29 13 35 9 11 -7 13 18 4 53 -4 15 -14 22 -30 22 -13 0 -24 -4
-24 -10 0 -5 7 -10 15 -10 17 0 20 -26 4 -35 -16 -11 -51 26 -45 48 3 12 -4
27 -20 41 -13 11 -32 36 -42 55 -9 19 -22 36 -28 38 -6 2 -47 -39 -90 -92z"/>
<path d="M0 235 l0 -235 1213 1 1212 1 -130 24 c-337 63 -714 140 -874 179
-169 41 -340 71 -541 95 -73 9 -740 137 -857 165 l-23 5 0 -235z"/>
<path d="M4625 120 c-11 -5 -42 -9 -70 -10 -52 -1 -103 -29 -90 -50 4 -6 3 -9
-2 -8 -5 2 -23 -9 -41 -24 l-31 -26 364 -1 365 -2 0 66 0 66 -52 -6 c-78 -9
-231 -11 -333 -3 -49 4 -99 3 -110 -2z"/>
</g>
</svg>
