<?xml version="1.0" standalone="no"?>
<!DOCTYPE svg PUBLIC "-//W3C//DTD SVG 20010904//EN"
 "http://www.w3.org/TR/2001/REC-SVG-20010904/DTD/svg10.dtd">
<svg version="1.0" xmlns="http://www.w3.org/2000/svg"
 width="576.000000pt" height="330.000000pt" viewBox="0 0 576.000000 330.000000"
 preserveAspectRatio="xMidYMid meet">
<metadata>
Created by potrace 1.16, written by Peter Selinger 2001-2019
</metadata>
<g transform="translate(0.000000,330.000000) scale(0.100000,-0.100000)"
fill="#000000" stroke="none">
<path d="M0 3056 l0 -243 76 -35 c61 -28 74 -37 63 -47 -8 -6 -27 -23 -44 -37
-16 -14 -45 -32 -62 -40 l-33 -14 0 -754 0 -754 42 5 c24 3 60 9 80 13 20 4
39 5 43 2 3 -3 5 -43 5 -88 0 -46 5 -86 10 -89 13 -8 13 -55 0 -55 -11 0 -12
-101 -1 -140 6 -21 14 -26 49 -28 34 -3 42 0 42 14 0 16 2 16 17 1 10 -8 30
-19 46 -22 26 -7 27 -6 27 38 0 25 4 48 10 52 5 3 7 12 3 20 -3 11 2 15 18 15
13 0 34 3 45 6 16 4 23 0 28 -18 6 -22 7 -22 21 11 21 48 19 64 -15 96 -28 27
-31 27 -48 12 -39 -36 -67 -16 -63 43 3 45 17 60 34 35 9 -12 16 -14 21 -7 4
6 12 9 19 7 7 -2 24 -6 39 -9 21 -5 25 -10 21 -28 -4 -22 -4 -23 11 -4 9 11
16 28 16 38 0 10 5 18 10 18 6 0 10 -7 10 -15 0 -21 18 -19 23 3 3 9 5 3 6
-13 0 -17 -9 -49 -20 -70 -12 -22 -25 -64 -30 -94 -8 -54 -47 -111 -76 -111
-19 0 -16 -27 5 -35 21 -8 80 55 88 95 16 73 22 72 21 -5 l-2 -80 -30 -6 -30
-7 30 -2 c17 -1 34 -2 38 -1 5 1 23 -3 42 -8 47 -13 58 -1 59 65 1 42 5 58 14
56 6 -1 12 5 12 13 0 8 -7 15 -15 15 -9 0 -15 9 -15 25 0 23 -4 25 -45 25 -51
0 -56 11 -31 71 17 41 15 168 -4 219 -21 59 -60 101 -115 126 -74 34 -128 38
-210 17 -58 -16 -71 -23 -73 -41 -7 -48 -22 -18 -22 44 0 56 -6 78 -33 131
-30 60 -31 65 -15 77 17 12 17 15 2 45 -11 22 -14 44 -9 71 7 42 30 55 42 23
22 -64 45 -47 27 20 -21 78 -19 99 9 95 12 -2 26 -13 32 -25 14 -33 23 -28 27
15 2 29 8 38 24 40 19 3 22 -3 27 -50 4 -29 7 -69 7 -88 0 -19 7 -43 14 -52
12 -16 14 -13 26 25 7 23 16 85 19 137 6 93 6 95 30 92 32 -3 34 -6 35 -46 2
-34 16 -65 16 -33 0 22 18 31 35 17 13 -11 15 -6 15 29 0 46 14 53 48 24 18
-16 30 -71 32 -143 0 -8 8 -1 18 15 11 17 26 36 35 44 10 7 17 18 17 24 0 5 9
40 20 77 22 73 45 95 59 57 8 -19 10 -20 16 -5 4 9 3 23 -1 30 -13 20 -15 48
-4 48 5 0 7 6 4 14 -3 8 1 28 10 44 8 16 13 32 11 36 -3 3 -2 4 1 1 4 -2 13 2
21 10 8 9 33 15 58 15 30 0 45 5 49 16 8 20 7 26 -3 42 -11 19 -61 -5 -61 -30
0 -10 -6 -18 -14 -18 -18 0 -37 24 -34 41 2 10 -6 13 -26 12 -42 -3 -56 -10
-56 -29 0 -10 5 -14 15 -10 8 3 15 1 15 -4 0 -6 -11 -10 -25 -10 -17 0 -29 8
-37 25 -6 13 -15 22 -19 19 -5 -3 -9 0 -9 5 0 6 -7 11 -16 11 -12 0 -14 -7 -9
-30 4 -19 3 -30 -4 -30 -6 0 -13 12 -17 28 -3 15 -8 34 -11 42 -3 8 -7 31 -9
50 -2 19 -6 52 -9 73 -3 21 -1 56 5 78 9 34 8 45 -8 72 -11 18 -22 54 -26 80
-9 75 18 108 72 85 66 -29 75 -53 42 -120 -11 -23 -20 -54 -20 -69 0 -31 4
-32 188 -49 56 -6 128 -19 160 -30 31 -11 73 -20 94 -20 20 0 59 -4 85 -9 26
-6 78 -13 115 -16 64 -6 69 -9 89 -42 22 -34 22 -36 5 -89 -20 -62 -59 -114
-88 -114 -37 0 -69 -23 -103 -75 -17 -26 -20 -50 -21 -162 -2 -112 0 -135 15
-151 12 -14 25 -19 44 -15 15 3 27 10 27 15 0 6 16 7 41 3 27 -5 39 -4 35 3
-14 23 25 31 147 31 70 0 131 2 135 5 4 3 14 1 21 -3 7 -5 28 -5 47 -1 19 4
32 4 29 0 -2 -4 8 -7 23 -7 15 0 21 2 15 4 -10 3 -9 10 1 26 8 12 17 65 21
117 5 74 13 108 36 156 34 72 34 77 13 98 -19 20 -74 21 -74 2 0 -8 -8 -24
-18 -36 l-18 -23 -37 38 c-43 44 -42 42 -74 217 -3 15 0 41 5 58 11 29 10 30
-21 30 -60 1 -106 63 -129 171 -9 43 -9 64 -1 81 6 13 14 45 17 71 5 38 13 55
42 82 20 19 51 37 68 41 33 6 108 1 136 -8 8 -3 35 -11 60 -18 70 -19 87 -27
143 -68 50 -37 151 -82 183 -82 9 0 32 -7 51 -17 32 -15 37 -15 62 0 15 9 37
14 48 11 11 -3 37 4 57 16 33 18 149 40 288 55 14 2 32 6 39 11 7 4 30 7 51 5
21 -1 38 3 38 8 0 6 18 14 39 17 27 4 41 12 44 26 4 13 13 19 29 18 63 -5 77
1 144 65 38 36 73 65 78 65 5 0 17 6 25 14 19 17 98 6 131 -17 23 -16 65 -72
80 -106 13 -30 3 -80 -18 -88 -8 -4 -23 -13 -31 -20 -9 -8 -38 -30 -64 -50
-48 -34 -58 -61 -21 -55 10 2 25 3 32 2 27 -2 69 0 113 6 34 4 54 2 70 -9 13
-9 42 -19 64 -23 22 -4 45 -13 50 -21 8 -11 17 -11 45 -2 45 15 43 12 29 43
-12 25 -42 42 -66 38 -7 -2 -13 2 -13 8 0 6 -6 10 -12 8 -7 -1 -23 1 -35 6
-20 6 -22 12 -17 49 4 33 0 52 -20 89 l-25 47 24 20 c14 10 25 21 25 25 0 3
-20 15 -45 26 -25 11 -45 24 -45 29 0 4 -13 27 -29 52 -16 24 -31 60 -35 80
-3 20 -18 59 -31 87 l-25 52 -1600 0 -1600 0 0 -244z m699 -82 c61 -24 81
-100 39 -149 -35 -39 -85 -43 -125 -9 -27 22 -33 34 -33 66 0 32 7 47 34 74
19 19 37 34 40 34 3 0 23 -7 45 -16z m-243 -1652 c67 -35 96 -74 100 -134 3
-48 2 -50 -8 -25 -7 15 -16 27 -21 27 -9 0 -6 -20 8 -65 6 -19 2 -21 -53 -23
-32 -1 -72 -6 -88 -11 -21 -6 -38 -4 -55 5 -13 7 -43 13 -66 14 -24 0 -43 3
-43 8 1 20 34 99 48 116 13 14 26 17 59 12 25 -3 43 -2 43 4 0 17 -58 40 -100
40 -22 0 -40 5 -40 10 0 6 4 10 8 10 5 0 20 9 33 21 20 18 33 20 80 16 30 -3
73 -14 95 -25z"/>
<path d="M3635 3248 c4 -29 14 -63 22 -75 16 -24 14 -68 -7 -138 -21 -73 -22
-92 -6 -155 15 -60 50 -116 104 -167 30 -29 43 -29 76 2 28 26 53 23 73 -8 13
-19 33 -80 33 -100 0 -30 43 -86 72 -92 19 -5 36 0 58 17 41 30 180 41 180 14
0 -19 64 -53 123 -66 23 -5 67 -17 97 -26 39 -12 98 -18 205 -19 211 -4 315
-23 315 -60 0 -7 6 -20 14 -27 7 -8 17 -28 20 -46 9 -40 77 -102 114 -103 27
-2 66 -2 111 0 16 1 46 24 88 67 l64 66 87 -7 c74 -6 164 -21 260 -42 l22 -5
0 511 0 511 -1066 0 -1066 0 7 -52z m850 -74 c20 -8 57 -78 50 -96 -6 -15 47
-40 62 -29 5 3 23 25 41 48 41 52 98 74 137 53 35 -19 32 -53 -9 -98 -64 -69
-79 -93 -84 -138 -6 -53 8 -89 65 -172 49 -72 51 -83 22 -120 -41 -52 -93 -37
-177 52 -30 31 -58 56 -63 56 -5 0 -19 -12 -32 -26 -12 -14 -31 -36 -42 -49
-11 -12 -25 -31 -31 -41 -15 -26 -91 -26 -110 0 -19 27 -28 100 -15 125 15 28
71 304 71 351 0 64 57 106 115 84z m733 -61 c17 -13 32 -31 32 -39 0 -7 5 -14
11 -14 5 0 7 -5 4 -10 -4 -6 -2 -16 4 -23 8 -10 -6 -12 -61 -9 -52 3 -73 1
-79 -9 -14 -22 -10 -49 11 -79 36 -50 102 -44 123 12 6 18 10 37 9 41 -6 19
30 51 75 67 26 10 66 25 88 34 68 26 225 15 225 -17 0 -5 7 -7 15 -3 11 4 15
-1 15 -18 0 -19 -7 -25 -42 -34 -24 -6 -65 -8 -93 -6 -30 3 -60 0 -75 -8 -39
-21 -70 -75 -70 -122 0 -96 39 -162 113 -190 35 -13 48 -25 62 -56 10 -22 22
-40 27 -40 4 0 8 -6 8 -14 0 -7 18 -32 40 -54 22 -22 40 -47 40 -55 0 -24 -38
-40 -77 -34 -42 7 -63 23 -63 48 0 10 -10 24 -22 30 -13 7 -25 15 -28 18 -5 6
-17 14 -98 62 -65 38 -122 105 -143 167 -22 66 -56 85 -122 67 -87 -22 -103
-42 -123 -151 -5 -30 -53 -74 -80 -74 -13 0 -38 12 -55 28 -27 24 -29 30 -19
56 6 16 12 43 15 60 2 17 11 74 20 126 9 52 19 126 22 163 5 58 9 70 32 86 36
26 55 29 146 23 64 -4 86 -9 113 -29z"/>
<path d="M3075 3014 c-11 -8 -19 -24 -17 -34 2 -11 -1 -20 -6 -20 -5 0 -7 -22
-4 -50 3 -33 1 -50 -7 -50 -6 0 -11 5 -11 10 0 6 -9 10 -20 10 -14 0 -18 -5
-13 -17 4 -11 3 -14 -5 -9 -8 4 -10 2 -6 -7 6 -17 -38 -30 -103 -30 -27 0 -43
-5 -43 -13 0 -6 -16 -15 -35 -18 -32 -6 -71 -43 -59 -55 3 -3 10 2 15 12 12
21 29 22 29 2 0 -18 16 -20 23 -2 4 7 8 3 12 -10 4 -13 13 -23 20 -23 17 0 17
-60 -1 -67 -29 -11 -13 -21 20 -12 32 9 39 6 81 -26 26 -19 65 -53 87 -75 43
-42 53 -47 63 -30 3 6 12 10 18 10 7 0 7 -4 -2 -9 -12 -8 -9 -11 12 -16 15 -4
27 -13 27 -21 0 -8 9 -14 19 -14 12 0 19 7 19 18 -1 31 7 47 35 65 15 9 25 22
22 28 -4 5 -1 16 5 24 10 12 9 15 -5 15 -14 0 -16 6 -12 30 5 23 3 28 -8 23
-8 -3 -15 -1 -15 5 0 16 -50 24 -66 11 -19 -15 -18 -29 2 -29 13 0 14 -3 4
-14 -6 -8 -18 -12 -26 -9 -8 3 -14 0 -14 -7 0 -6 5 -8 10 -5 23 14 7 -15 -21
-39 -36 -31 -49 -32 -80 -7 -20 16 -21 20 -9 33 42 43 60 70 60 90 l0 22 -16
-22 c-15 -22 -44 -30 -44 -13 0 13 55 51 73 51 8 0 21 8 28 17 10 11 10 14 2
9 -9 -5 -13 0 -13 15 0 16 5 20 20 16 14 -3 20 0 20 10 0 10 6 14 19 10 20 -5
61 39 61 66 0 7 3 17 7 21 11 11 13 45 3 51 -6 3 -10 -2 -11 -12 0 -15 -2 -15
-9 3 -5 12 -20 24 -33 28 -26 6 -46 38 -28 44 14 5 14 22 0 22 -6 0 -24 -9
-41 -21 -34 -25 -49 -18 -23 11 21 24 18 25 -10 4z"/>
<path d="M2410 2676 c0 -11 -5 -16 -13 -13 -10 4 -13 -2 -9 -18 4 -23 2 -24
-34 -18 -22 3 -41 9 -44 12 -5 7 -57 31 -65 31 -10 0 -4 -47 7 -58 7 -7 13
-27 14 -45 0 -17 4 -43 9 -56 6 -21 5 -23 -11 -17 -15 6 -17 5 -6 -5 16 -17
15 -29 -3 -29 -18 0 -20 -16 -3 -26 6 -4 14 -2 16 4 2 7 11 12 19 12 10 0 14
6 10 20 -3 12 0 20 8 20 7 0 23 9 36 20 l24 19 -30 1 c-32 0 -55 15 -55 36 0
13 67 16 85 4 17 -11 81 -6 98 9 10 7 17 22 17 32 0 11 5 19 10 19 6 0 10 -4
10 -10 0 -5 7 -10 17 -10 15 0 15 1 0 18 -10 10 -17 24 -17 30 0 17 -27 15
-33 -2 -3 -8 -3 -24 0 -35 7 -26 -5 -27 -24 -3 -13 16 -14 15 -10 -5 4 -17 1
-23 -13 -23 -15 0 -16 5 -9 47 5 25 7 49 4 51 -3 3 -5 -3 -5 -12z"/>
<path d="M3757 2662 c-3 -4 -8 -50 -12 -102 -8 -103 -21 -128 -56 -109 -17 9
-19 6 -15 -33 4 -42 4 -43 39 -40 27 3 39 -2 53 -21 23 -29 94 -43 126 -26 55
30 70 76 42 131 -8 16 -17 40 -18 52 -3 28 -112 136 -137 136 -11 0 -17 5 -14
10 3 6 4 10 1 10 -3 0 -7 -3 -9 -8z"/>
<path d="M3360 2643 c1 -19 18 -33 33 -27 9 3 17 2 17 -4 0 -22 -13 -42 -26
-42 -8 0 -14 -9 -14 -20 0 -11 -4 -20 -10 -20 -5 0 -6 8 -3 17 5 12 2 15 -10
10 -8 -3 -17 -1 -20 6 -2 6 -11 0 -21 -15 -20 -31 -13 -56 10 -37 8 7 14 7 14
1 0 -13 -26 -23 -45 -16 -10 4 -15 0 -15 -11 0 -9 5 -13 10 -10 6 3 10 2 10
-3 0 -17 -13 -22 -27 -10 -11 9 -20 6 -43 -10 -16 -12 -37 -22 -47 -23 -15 0
-15 -2 3 -9 26 -10 74 -66 74 -86 0 -11 8 -13 34 -9 32 6 33 5 29 -19 -4 -21
-2 -26 16 -26 12 0 21 -6 21 -15 0 -27 -55 -18 -75 12 -17 26 -19 26 -26 8 -7
-20 -7 -20 -14 0 -14 36 -37 57 -47 43 -6 -10 -11 -9 -22 5 -7 9 -18 17 -25
17 -6 0 -11 6 -11 13 0 7 -13 18 -30 24 -26 10 -30 9 -30 -7 0 -9 7 -23 16
-31 14 -11 14 -13 -1 -21 -14 -8 -12 -12 10 -29 25 -20 34 -49 15 -49 -5 0
-10 4 -10 10 0 17 -41 33 -53 21 -19 -19 -34 -12 -40 19 -4 17 -11 30 -17 30
-15 0 -12 -22 10 -64 10 -22 17 -43 14 -47 -3 -5 0 -9 5 -9 6 0 11 -5 11 -11
0 -7 -9 -9 -24 -5 -15 4 -26 1 -28 -6 -6 -17 -48 23 -48 47 0 19 -2 18 -20 -5
l-20 -25 -1 23 c-1 12 -2 28 -3 35 -1 6 9 12 22 12 28 1 59 50 36 59 -8 3 -14
1 -14 -4 0 -6 -5 -10 -10 -10 -6 0 -10 7 -8 16 2 10 -3 19 -9 21 -7 3 -13 -1
-13 -8 0 -6 -9 0 -20 14 -18 22 -19 29 -8 47 7 11 16 20 20 20 11 0 10 -18 -2
-25 -19 -12 -10 -25 18 -25 15 0 34 -6 41 -12 10 -11 14 -10 22 5 6 10 22 17
38 17 15 0 38 5 52 12 24 11 25 13 12 40 -8 15 -19 28 -24 28 -5 0 -9 6 -9 13
-1 10 -44 67 -52 67 -2 0 -4 -28 -6 -63 -2 -34 -9 -68 -16 -75 -10 -10 -12 2
-12 59 1 49 -3 73 -12 76 -9 4 -10 9 -1 19 9 11 7 14 -10 14 -14 0 -25 -9 -31
-25 -5 -14 -12 -25 -15 -25 -4 0 -3 4 0 10 3 5 2 17 -3 26 -6 11 -12 13 -16 6
-7 -12 -37 -5 -48 12 -4 6 -12 5 -22 -3 -9 -7 -22 -11 -31 -8 -8 4 -17 2 -20
-3 -4 -6 -15 -10 -26 -10 -10 0 -19 -5 -19 -11 0 -6 -7 -9 -15 -5 -9 3 -15 0
-15 -9 0 -8 -4 -15 -10 -15 -5 0 -10 -6 -10 -14 0 -7 -11 -16 -25 -18 -27 -6
-32 1 -13 20 20 20 0 26 -34 9 -21 -10 -36 -12 -44 -6 -8 6 -13 3 -17 -11 -3
-11 -17 -24 -33 -30 -18 -7 -24 -14 -17 -21 11 -11 6 -56 -8 -65 -5 -3 0 -14
10 -25 19 -20 19 -21 0 -40 -10 -10 -19 -25 -19 -31 1 -7 13 2 29 20 33 38 41
40 41 8 0 -28 -15 -43 -24 -24 -4 7 -4 3 -2 -10 3 -15 -2 -26 -17 -33 -11 -7
-30 -20 -41 -30 -11 -11 -24 -19 -28 -19 -5 0 -6 -5 -3 -10 4 -6 1 -17 -5 -25
-9 -11 -7 -22 10 -50 12 -19 26 -35 31 -35 6 0 8 4 4 9 -3 5 -1 12 5 16 5 3
10 18 10 32 0 19 4 24 16 19 9 -3 18 -6 20 -6 12 0 1 -28 -16 -43 -28 -24 -17
-37 30 -37 49 0 70 8 70 27 0 13 3 13 15 3 9 -7 18 -10 22 -7 3 3 18 0 33 -8
40 -21 82 -15 98 14 9 18 9 27 1 37 -9 11 -7 14 10 14 23 0 27 10 10 27 -8 8
-8 16 0 30 9 16 10 16 11 1 0 -9 9 -33 21 -52 11 -19 19 -45 17 -58 -4 -29 26
-36 52 -13 14 12 19 13 22 3 5 -14 113 -20 210 -11 l57 5 -6 31 c-4 18 -13 38
-20 46 -12 11 -11 16 8 29 20 14 22 13 31 -3 6 -9 18 -25 29 -36 12 -12 14
-19 6 -23 -9 -5 -9 -7 1 -12 7 -3 20 -13 29 -22 10 -10 39 -18 80 -20 71 -5
69 -7 46 55 -2 6 5 14 16 18 15 5 21 15 21 37 0 26 -3 30 -21 25 -15 -4 -18
-2 -10 6 5 7 11 30 13 52 2 26 8 39 16 37 7 -1 31 7 54 18 29 14 45 17 54 9 8
-7 14 -7 19 1 9 15 25 12 19 -4 -4 -9 -21 -14 -51 -14 -24 0 -47 -3 -50 -6
-12 -11 30 -46 55 -46 20 0 22 -2 12 -15 -6 -8 -21 -13 -33 -12 -15 1 -24 -6
-31 -25 -8 -23 -6 -32 14 -53 13 -14 29 -25 37 -25 7 0 13 -6 13 -14 0 -27 64
-57 114 -54 25 2 44 8 42 13 -1 6 11 17 27 25 17 8 31 23 33 32 1 10 9 25 18
34 9 8 16 18 16 22 -1 19 -29 40 -54 40 -45 0 -74 21 -81 59 -4 23 -14 38 -31
45 -28 13 -31 30 -7 53 14 14 14 18 2 26 -12 8 -11 12 5 24 13 10 17 21 12 39
-3 15 -11 26 -16 26 -6 0 -10 9 -10 19 0 27 -10 51 -22 51 -6 0 -8 -7 -4 -15
3 -8 1 -15 -4 -15 -6 0 -10 4 -10 10 0 5 -10 9 -22 7 -14 -1 -26 6 -33 20 -18
34 -67 73 -92 73 -13 0 -23 -3 -23 -7z"/>
<path d="M2274 2225 c-3 -14 -4 -31 -1 -39 4 -10 -9 -21 -39 -35 -31 -15 -44
-27 -42 -39 2 -11 -3 -17 -14 -16 -10 1 -18 -4 -18 -12 0 -11 18 -14 78 -14
85 0 92 3 108 40 10 22 8 30 -11 54 -12 16 -21 36 -18 45 2 9 -5 22 -16 28
-18 12 -21 10 -27 -12z"/>
<path d="M2142 2022 c-22 -3 -23 -7 -19 -60 2 -31 23 -187 45 -347 23 -159 42
-308 44 -330 2 -32 8 -42 29 -52 35 -17 50 -37 58 -76 6 -28 11 -32 45 -35
l37 -3 -5 43 c-7 54 -19 169 -52 483 -14 138 -29 279 -32 315 l-7 65 -60 0
c-33 0 -71 -1 -83 -3z"/>
<path d="M2604 2016 c-3 -9 -4 -31 0 -49 6 -36 31 -445 42 -695 4 -89 10 -164
13 -167 6 -3 258 -8 302 -6 20 1 25 98 34 599 3 162 7 298 11 303 6 10 599 3
616 -7 5 -3 6 -22 4 -42 -3 -20 -15 -100 -26 -177 -11 -77 -30 -205 -41 -285
-10 -80 -26 -187 -34 -237 -18 -114 -19 -133 -2 -133 36 0 46 26 71 190 14 91
35 220 46 288 48 293 60 368 60 389 0 20 -6 22 -92 27 -51 3 -297 8 -546 12
-407 5 -453 4 -458 -10z"/>
<path d="M1952 1957 c-19 -20 -22 -38 -26 -133 l-5 -109 27 -17 c108 -67 192
-138 192 -162 0 -5 2 -7 5 -4 8 8 -36 324 -56 403 -10 41 -11 41 -63 43 -43 2
-56 -2 -74 -21z"/>
<path d="M4801 1792 c-6 -12 -8 -39 -5 -66 6 -39 4 -46 -10 -46 -12 0 -15 -6
-10 -24 3 -13 1 -27 -5 -31 -7 -4 -2 -19 15 -41 21 -27 24 -38 15 -47 -9 -9 1
-24 46 -64 49 -44 54 -52 36 -53 -13 0 -23 -4 -23 -10 0 -5 -6 -7 -13 -4 -8 3
-20 -2 -27 -11 -9 -11 -16 -12 -25 -5 -9 7 -16 6 -24 -4 -10 -11 -7 -18 11
-31 13 -10 16 -15 6 -12 -9 3 -24 0 -34 -8 -15 -10 -16 -16 -6 -28 10 -12 10
-15 0 -14 -7 0 -28 -1 -46 -1 -30 -2 -32 -4 -22 -23 6 -11 12 -33 12 -50 1
-18 6 -29 15 -29 11 0 13 8 8 33 l-8 32 21 -25 c19 -24 21 -24 40 -7 11 10 23
17 28 16 26 -5 54 2 49 12 -4 6 1 16 10 23 15 11 14 15 -15 46 -36 38 -31 65
11 65 35 0 42 -5 23 -19 -16 -12 -15 -14 9 -20 35 -8 35 -26 0 -20 -22 4 -24
3 -14 -9 6 -8 20 -13 31 -10 10 3 29 -2 42 -11 21 -15 21 -16 2 -16 -13 0 -20
-7 -21 -20 -1 -14 4 -20 18 -20 28 0 23 -14 -8 -27 l-28 -12 28 6 c17 3 27 1
27 -7 0 -6 5 -8 11 -4 8 5 8 9 -1 14 -9 6 -9 9 0 15 15 9 24 -1 25 -28 0 -12
6 -21 13 -19 6 1 12 -2 12 -8 0 -5 -7 -10 -15 -10 -8 0 -15 -5 -15 -11 0 -7
10 -9 25 -7 17 4 25 1 25 -8 0 -8 5 -14 10 -14 6 0 10 7 10 16 0 10 6 14 14
11 11 -4 13 -1 9 11 -6 15 -5 15 10 3 9 -7 17 -20 17 -27 0 -8 4 -14 10 -14 5
0 12 -11 16 -25 6 -24 24 -35 24 -15 0 10 -47 90 -59 100 -3 3 -21 26 -39 52
l-33 48 28 -5 c297 -47 504 -113 661 -210 l42 -26 0 96 c0 86 -4 106 -32 155
-4 8 -11 20 -14 26 -3 7 7 24 22 39 l28 28 -41 36 c-22 20 -39 41 -39 48 1 13
49 53 65 53 7 0 11 33 11 97 0 90 -1 95 -17 82 -66 -54 -156 -76 -167 -41 -7
22 -65 61 -129 88 -26 10 -47 22 -47 27 0 14 -51 7 -56 -8 -4 -8 -11 -15 -18
-15 -6 0 -20 -14 -31 -30 -11 -16 -29 -31 -40 -32 -94 -7 -120 0 -129 34 -10
37 -54 62 -126 70 -191 22 -187 22 -199 0z"/>
<path d="M3282 1776 c-19 -6 -38 -19 -43 -29 -6 -9 -16 -17 -24 -17 -9 0 -14
-8 -12 -22 1 -17 -4 -24 -19 -26 -19 -3 -22 -12 -27 -84 -6 -68 -3 -88 13
-125 11 -25 22 -68 26 -96 7 -58 17 -82 46 -113 17 -19 17 -22 4 -27 -29 -11
-18 -37 14 -37 37 0 37 -7 0 -50 -16 -19 -29 -38 -30 -42 -1 -18 30 -6 49 20
l22 27 -3 -39 c-2 -25 2 -41 10 -44 9 -3 12 14 12 62 0 62 2 66 25 72 25 6 37
44 13 44 -6 0 0 13 15 28 15 15 34 50 43 77 8 28 20 59 24 70 32 71 38 101 39
179 1 99 -12 136 -62 166 -36 22 -85 24 -135 6z m148 -34 c20 -20 30 -42 35
-80 7 -55 -3 -90 -16 -56 -6 12 -6 5 -3 -17 6 -35 5 -36 -21 -31 -15 2 -44 -1
-66 -8 -30 -10 -42 -11 -51 -2 -7 7 -29 12 -50 12 -21 0 -38 2 -38 4 0 12 34
84 48 99 9 10 29 17 49 17 18 0 33 4 33 8 0 13 -47 32 -78 32 l-27 0 30 25
c45 36 117 35 155 -3z m30 -228 c0 -8 -9 -33 -19 -57 -11 -23 -25 -61 -31 -83
-13 -51 -98 -144 -111 -122 -11 16 -12 72 -1 82 7 7 8 11 11 37 0 5 6 7 13 3
46 -29 88 7 68 57 -12 27 -40 41 -40 19 0 -5 -9 -10 -20 -10 -15 0 -20 7 -20
28 0 27 29 80 30 54 0 -7 11 -11 28 -10 15 1 33 -2 40 -6 9 -5 15 -1 19 12 6
23 33 19 33 -4z"/>
<path d="M1160 1673 c-28 -12 -44 -33 -31 -46 18 -18 13 -27 -14 -27 -28 0
-32 9 -12 29 10 10 7 10 -15 0 -23 -10 -31 -10 -45 2 -16 13 -21 12 -47 -13
-16 -16 -22 -26 -13 -22 24 9 21 -8 -5 -31 -15 -13 -18 -20 -10 -23 17 -5 41
27 42 56 0 12 6 22 15 22 21 0 65 -22 65 -33 0 -5 9 -7 20 -4 26 7 26 -8 -1
-27 -25 -17 -49 -3 -41 26 2 10 -1 18 -7 18 -6 0 -11 -7 -11 -15 0 -8 -4 -15
-10 -15 -5 0 -10 -4 -10 -10 0 -5 7 -7 15 -4 19 8 20 -19 1 -35 -10 -8 -16 -9
-21 -1 -3 5 -14 9 -23 9 -15 -1 -15 -2 1 -6 9 -2 17 -8 17 -13 0 -5 -8 -14
-17 -20 -15 -10 -14 -11 9 -7 24 4 26 2 18 -14 -16 -28 -32 -34 -46 -15 -14
20 -28 15 -44 -15 -9 -16 -8 -19 9 -16 11 2 23 6 26 9 9 9 45 -3 39 -13 -3 -5
-10 -6 -16 -3 -6 4 -14 0 -19 -7 -11 -17 -11 -21 0 -38 8 -12 12 -13 26 -1 14
12 15 10 5 -14 -26 -69 -55 -92 -45 -36 7 39 -19 73 -30 40 -4 -12 -2 -27 5
-34 6 -8 9 -20 8 -27 -2 -8 8 -15 22 -17 13 -2 29 -11 36 -20 7 -9 25 -15 48
-14 20 1 36 -3 36 -8 0 -6 9 -10 20 -10 11 0 20 -4 20 -10 0 -6 -9 -6 -24 0
-13 5 -26 7 -29 4 -2 -2 -26 0 -53 5 -103 20 -150 24 -136 10 6 -7 12 -23 12
-35 0 -12 7 -27 15 -34 14 -12 14 -15 0 -30 -17 -19 -20 -46 -4 -55 32 -21 28
-105 -6 -105 -19 0 -20 19 0 26 8 4 15 11 15 17 0 7 -4 7 -12 -1 -21 -21 -45
-13 -79 25 -19 22 -34 33 -37 25 -7 -22 -33 -14 -30 11 2 18 -1 21 -22 19 -14
-2 -27 -9 -29 -15 -2 -6 -14 -21 -27 -34 -13 -13 -22 -24 -21 -24 12 -7 57 -6
57 2 0 12 30 12 31 -1 1 -5 2 -16 3 -22 1 -9 15 -12 45 -9 40 3 48 0 73 -29
15 -18 28 -37 28 -42 0 -6 7 -7 15 -4 9 3 18 -1 21 -8 3 -8 14 -13 25 -11 25
5 31 -8 19 -40 -9 -24 -8 -26 10 -20 30 9 60 -4 60 -26 0 -21 15 -26 23 -6 6
15 -15 47 -31 47 -6 0 -20 16 -32 35 -12 20 -27 34 -34 32 -18 -6 -48 40 -41
63 10 30 34 24 70 -17 30 -35 37 -38 88 -38 48 0 52 -1 35 -13 -17 -12 -35
-19 -60 -21 -5 -1 -8 -8 -8 -16 0 -9 9 -15 24 -15 13 0 26 7 30 15 3 8 12 15
20 15 9 0 20 9 26 20 11 20 12 20 40 3 31 -18 52 -11 32 9 -7 7 -12 19 -12 27
0 10 7 8 25 -9 14 -13 24 -29 21 -35 -5 -14 32 -17 56 -4 10 5 18 6 18 2 0 -4
18 -8 40 -8 24 -1 45 -7 52 -17 7 -8 27 -18 43 -22 30 -6 30 -6 8 10 -25 18
-20 44 8 44 22 0 43 -35 32 -53 -4 -6 -6 -21 -5 -33 3 -22 -31 -59 -56 -59 -8
0 -17 -6 -19 -12 -3 -7 1 -13 7 -13 9 0 9 -4 -1 -16 -9 -12 -10 -17 -1 -23 6
-4 15 -21 18 -39 l7 -32 -52 0 c-39 0 -51 -4 -51 -15 0 -18 36 -20 43 -2 3 6
6 7 6 1 1 -5 -5 -18 -12 -29 -11 -14 -21 -16 -49 -11 -50 9 -59 23 -45 69 7
20 18 37 24 37 14 0 16 8 13 56 -2 41 14 51 28 18 l12 -25 30 22 c34 25 30 44
-7 34 -23 -5 -25 -4 -21 20 4 21 3 23 -9 13 -11 -9 -15 -7 -20 10 -6 24 -49
56 -58 43 -3 -5 0 -13 6 -16 6 -4 8 -18 5 -31 -4 -13 -2 -24 3 -24 4 0 8 -18
7 -40 -1 -42 -14 -51 -36 -25 -7 8 -21 15 -31 15 -24 0 -24 6 1 32 11 12 20
26 20 30 0 16 -30 20 -46 7 -9 -7 -28 -13 -42 -14 -16 0 -30 -8 -37 -21 -24
-48 -60 -68 -71 -39 -4 8 -12 15 -20 15 -8 0 -14 4 -14 9 0 11 -61 44 -67 37
-8 -8 29 -56 43 -56 19 0 54 -40 54 -62 0 -15 4 -17 18 -9 13 7 24 4 42 -10
l25 -19 -41 2 c-51 2 -85 27 -77 57 5 19 1 21 -31 21 -26 0 -36 4 -36 16 0 9
-9 18 -20 21 -23 6 -24 8 -9 34 10 19 9 20 -11 9 -14 -8 -19 -17 -15 -28 4
-10 -2 -22 -16 -33 -14 -10 -19 -21 -14 -29 6 -9 12 -7 25 11 16 20 20 21 35
9 14 -12 13 -15 -15 -33 -27 -17 -34 -18 -56 -7 -30 17 -30 25 0 53 19 18 22
27 15 46 l-9 23 -20 -24 c-26 -34 -66 -27 -75 12 -9 41 4 77 38 106 20 17 27
28 20 35 -12 12 -63 1 -63 -13 0 -5 5 -6 10 -3 16 10 12 -11 -5 -25 -8 -7 -15
-21 -15 -32 0 -33 -31 -34 -57 -2 -12 16 -23 24 -23 17 0 -6 5 -15 11 -18 6
-4 8 -13 5 -21 -3 -8 -2 -13 2 -12 4 0 17 -3 30 -8 l23 -10 -30 -34 c-36 -41
-35 -54 4 -55 25 0 30 -5 43 -51 l14 -51 25 25 c20 20 31 24 63 19 21 -3 43 0
49 6 8 8 11 7 11 -5 0 -21 -17 -27 -57 -20 -18 2 -40 2 -49 -2 -16 -6 -16 -8
3 -21 15 -11 29 -12 52 -5 22 6 41 5 65 -5 18 -8 37 -11 40 -7 4 4 12 -1 17
-11 6 -9 17 -17 24 -17 20 0 19 -16 -1 -24 -8 -3 -12 -11 -8 -17 4 -7 0 -9
-14 -5 -11 4 -23 2 -27 -3 -3 -6 -28 -9 -54 -7 -40 2 -54 8 -74 32 -14 16 -28
26 -32 22 -6 -6 42 -61 62 -69 4 -2 39 -22 77 -43 84 -48 185 -70 416 -91 168
-15 250 -30 250 -46 0 -5 0 -11 0 -14 0 -3 8 -19 18 -37 24 -42 55 -58 116
-58 77 0 249 30 269 48 22 19 22 34 1 30 -23 -4 -28 16 -9 35 8 9 12 23 9 31
-4 11 -1 16 10 16 9 0 16 -7 16 -15 0 -8 4 -15 10 -15 5 0 7 7 4 15 -4 9 0 15
10 15 9 0 16 4 16 9 0 6 -16 7 -35 4 -31 -5 -35 -4 -29 13 4 11 14 25 22 31
13 10 19 10 34 -4 22 -20 32 -12 25 20 -6 20 -11 22 -41 19 -27 -3 -37 0 -45
17 -13 23 -51 29 -51 7 0 -8 7 -17 16 -20 8 -3 13 -10 9 -16 -3 -5 -1 -18 5
-29 6 -11 6 -22 1 -25 -12 -8 -34 20 -27 33 4 5 2 12 -3 15 -5 4 -13 1 -17 -5
-4 -8 -9 -7 -15 2 -13 21 -11 56 5 62 8 3 14 21 14 45 1 32 -4 41 -24 50 -13
7 -24 16 -24 21 0 12 85 26 100 16 13 -8 30 11 30 35 0 13 -2 13 -9 0 -13 -20
-70 -16 -118 8 -27 14 -43 18 -50 11 -7 -7 -23 -3 -50 11 -34 17 -45 19 -66 9
-20 -9 -29 -8 -47 4 -33 23 -55 12 -54 -26 1 -18 3 -35 4 -39 1 -5 3 -12 4
-17 2 -15 16 -26 16 -13 0 7 10 12 21 12 20 0 20 -1 -5 -21 -25 -20 -28 -20
-52 -5 -24 16 -44 14 -44 -5 0 -5 7 -9 16 -9 8 0 12 -5 9 -11 -4 -6 -13 -8
-21 -5 -8 3 -14 -1 -14 -10 0 -8 4 -13 9 -9 18 10 23 -16 7 -34 -9 -10 -16
-23 -16 -29 0 -7 -9 -3 -20 8 -25 25 -25 30 1 30 11 0 17 5 14 10 -4 6 -11 8
-16 5 -5 -4 -9 1 -9 9 0 8 4 18 10 21 5 3 10 15 10 25 0 11 9 24 21 31 15 8
20 18 16 36 -3 16 1 27 10 30 8 3 13 14 10 25 -3 11 5 28 22 46 15 15 33 37
40 50 6 12 20 22 31 22 10 0 22 5 25 10 4 6 10 8 14 6 4 -3 21 7 37 22 33 30
37 32 59 32 8 0 15 7 15 15 0 8 9 19 20 25 11 6 20 18 20 27 0 10 6 14 20 10
11 -3 18 -1 15 3 -3 5 1 10 7 13 22 7 -10 35 -45 39 l-32 4 25 11 25 12 -25 0
c-14 0 -32 -4 -40 -9 -13 -9 -13 -11 0 -19 24 -16 6 -22 -29 -10 -27 9 -35 9
-42 -2 -8 -12 -11 -11 -20 4 -10 18 -12 18 -30 1 -25 -23 -24 -34 4 -34 31 0
43 -10 51 -42 8 -34 -1 -37 -13 -5 -6 15 -23 26 -55 35 -52 14 -96 16 -96 5 0
-5 -17 -9 -38 -11 -37 -2 -117 29 -105 42 4 3 0 6 -8 6 -8 0 -19 -10 -24 -22
-13 -29 -66 -36 -100 -14 -34 22 -68 20 -83 -5 -11 -18 -11 -24 3 -39 19 -21
17 -52 -5 -57 -13 -4 -13 -3 0 6 12 8 11 14 -10 37 -45 51 -65 64 -90 61 -20
-2 -25 -7 -23 -29 1 -25 -1 -26 -33 -21 -25 4 -40 1 -54 -12 -36 -32 -85 12
-66 60 3 9 -1 18 -9 21 -10 4 -15 19 -15 43 0 26 3 32 10 21 8 -12 14 -13 47
0 46 16 95 14 134 -5 15 -8 37 -15 47 -15 11 0 25 -6 31 -14 10 -12 20 -12 64
-1 29 7 83 16 120 19 47 5 78 14 98 29 27 19 43 21 172 22 125 2 147 4 182 23
21 12 53 22 70 22 37 0 47 7 70 47 11 18 32 37 47 42 18 6 28 17 28 30 0 26
-18 37 -26 16 -4 -10 -13 -13 -25 -10 -11 4 -19 2 -19 -4 0 -6 -11 -11 -25
-11 -13 0 -39 -6 -57 -14 -29 -12 -134 -34 -178 -37 -8 -1 -46 -8 -84 -16 -69
-15 -183 -14 -220 2 -14 6 -17 5 -12 -3 4 -7 3 -12 -2 -12 -6 0 -13 8 -17 18
-6 15 -8 14 -16 -5 -9 -25 -39 -31 -39 -8 0 7 -8 19 -17 24 -10 6 -12 11 -5
11 16 0 15 12 -2 35 -12 17 -16 18 -32 5 -16 -14 -17 -13 -11 3 3 9 2 17 -4
17 -6 0 -18 7 -27 16 -15 15 -14 16 8 10 l25 -7 -26 23 c-20 19 -23 26 -13 36
10 9 15 8 22 -4 5 -10 14 -14 21 -9 9 5 7 11 -8 22 -20 14 -29 43 -13 43 4 0
18 -7 30 -16 22 -15 22 -15 10 10 -14 32 -34 33 -60 4 -18 -21 -19 -21 -13 -3
12 34 14 85 3 85 -6 0 -8 9 -5 20 6 22 -3 26 -21 8 -16 -16 -44 9 -37 33 8 23
-4 24 -31 4 -22 -17 -44 -19 -44 -5 0 6 7 10 15 10 8 0 15 5 15 10 0 6 -7 10
-15 10 -22 0 -18 19 8 41 23 19 22 21 -3 12z"/>
<path d="M4366 1505 c-4 -10 -20 -15 -51 -15 -46 0 -58 -13 -32 -39 10 -10 8
-14 -7 -23 -15 -8 -16 -12 -5 -19 12 -8 12 -11 -1 -19 -8 -5 -16 -14 -16 -20
-1 -5 -2 -14 -3 -20 0 -5 -4 -9 -8 -9 -20 3 -34 -2 -28 -11 3 -6 17 -7 31 -4
15 4 24 2 24 -6 0 -7 -15 -11 -45 -9 -54 4 -62 -3 -41 -33 19 -27 22 -63 4
-51 -21 12 -61 3 -76 -18 -10 -15 -16 -16 -26 -6 -15 13 -10 38 6 34 14 -3 18
45 5 61 -5 7 -7 15 -4 19 4 3 -1 18 -10 33 -14 24 -22 28 -60 27 -26 0 -43 -5
-43 -12 0 -6 -11 -18 -25 -25 -15 -8 -23 -20 -20 -27 6 -18 -22 -61 -46 -68
-10 -4 -19 -13 -19 -21 0 -9 -10 -14 -28 -14 -49 0 -63 -19 -72 -100 -6 -53
-4 -83 5 -111 8 -20 12 -39 10 -41 -2 -2 -6 -21 -8 -43 -3 -22 -8 -48 -12 -57
-5 -12 -2 -20 9 -24 9 -3 13 -11 9 -17 -3 -6 -1 -7 5 -3 6 4 25 -6 42 -21 65
-59 131 -80 144 -46 6 15 8 15 16 3 7 -11 10 -11 10 -2 0 9 5 10 18 4 25 -13
105 -22 119 -14 8 5 9 13 3 22 -13 20 -12 40 0 40 6 0 10 -9 10 -21 0 -19 4
-20 43 -14 23 4 49 13 58 21 9 8 38 14 69 14 53 0 53 0 35 -20 -10 -11 -24
-19 -31 -18 -7 2 -13 0 -13 -4 -3 -26 0 -28 19 -18 16 8 28 8 50 -3 25 -13 28
-13 23 0 -5 12 0 12 32 -1 21 -9 47 -16 59 -16 13 0 56 -11 96 -25 40 -14 86
-26 102 -27 16 -1 32 -6 34 -10 10 -17 22 -7 18 15 -3 18 -1 17 8 -5 11 -25
15 -27 55 -21 30 4 50 1 67 -11 35 -23 66 -21 66 4 0 16 -7 20 -34 20 -41 0
-66 23 -40 38 15 8 15 10 0 15 -9 4 -16 14 -16 23 0 12 3 14 13 5 10 -8 17 -7
25 1 9 9 18 6 38 -13 l27 -24 -6 23 c-4 18 -2 22 9 18 8 -3 14 1 14 9 0 8 -6
15 -12 16 -7 1 -31 3 -53 5 -21 2 -45 -2 -51 -7 -9 -7 -19 -7 -31 0 -16 9 -15
10 9 11 35 0 42 13 17 30 -28 21 -24 27 25 34 24 4 50 14 58 23 12 15 11 15
-11 4 -14 -8 -37 -10 -57 -6 -21 3 -34 2 -34 -5 0 -5 -4 -10 -10 -10 -5 0 -10
7 -10 15 0 18 -16 20 -23 3 -4 -8 -6 -7 -6 4 -1 9 6 23 14 32 21 20 19 28 -7
26 -40 -4 -54 2 -24 9 46 10 161 -2 159 -16 -2 -7 4 -13 12 -13 8 0 15 5 15
11 0 26 137 -26 146 -55 3 -11 17 -38 31 -58 14 -20 22 -42 18 -47 -3 -7 2
-11 14 -11 12 0 21 -5 21 -10 0 -6 12 -15 28 -21 l27 -11 -23 -11 c-12 -6 -21
-14 -20 -19 4 -12 4 -12 91 -4 90 9 195 54 181 78 -4 6 -10 5 -15 -3 -5 -8 -9
-9 -9 -4 0 6 4 16 9 24 8 12 12 12 25 2 20 -17 22 0 4 30 -11 17 -10 22 6 34
14 10 16 18 9 27 -6 8 -7 21 -2 33 15 39 9 51 -12 25 -11 -14 -18 -19 -14 -12
7 13 -7 17 -19 5 -14 -14 -34 -10 -39 8 -4 15 -11 18 -36 13 -24 -5 -31 -3
-31 10 0 15 -42 33 -68 27 -8 -1 -22 8 -33 20 -10 12 -19 17 -19 11 0 -19 -24
-14 -37 8 -10 15 -10 22 2 34 13 12 13 15 -1 20 -9 4 -12 2 -8 -5 8 -13 -54
-2 -73 13 -7 5 -17 7 -23 3 -5 -3 -15 -3 -22 1 -7 5 -5 11 7 21 11 7 14 13 7
13 -7 0 -17 -9 -24 -20 -16 -24 -27 -25 -43 -4 -10 15 -12 13 -13 -15 -1 -26
3 -31 24 -31 13 0 24 5 24 11 0 6 7 4 15 -5 15 -15 11 -46 -7 -46 -6 0 -8 -6
-5 -14 4 -10 0 -12 -14 -9 -10 3 -19 9 -19 14 0 5 -7 9 -16 9 -10 0 -14 5 -10
15 3 9 -1 18 -9 22 -13 4 -13 8 -3 20 10 13 8 19 -15 39 -16 13 -34 24 -41 24
-8 0 -12 11 -11 29 2 28 0 29 -34 24 -20 -3 -42 -12 -48 -21 -11 -14 -13 -13
-13 5 0 12 5 25 10 28 6 4 8 10 5 15 -8 13 -75 -12 -87 -33 -8 -16 -12 -17
-20 -6 -8 12 -9 12 -6 0 3 -8 19 -22 36 -30 17 -9 32 -22 32 -28 0 -7 6 -13
14 -13 13 0 31 -29 23 -37 -7 -7 -57 16 -57 27 0 19 -18 10 -24 -12 -5 -22 -6
-22 -20 -3 -8 11 -11 21 -6 23 11 4 -34 52 -49 52 -18 0 -13 -18 9 -30 19 -10
19 -30 1 -30 -14 0 -71 63 -71 78 0 12 3 12 15 2 25 -21 28 -5 6 31 -16 25
-18 36 -9 47 9 10 9 15 -1 22 -10 6 -11 8 -1 12 22 7 1 46 -31 57 -35 12 -46
35 -28 58 10 12 10 15 2 9 -7 -4 -13 -2 -13 3 0 6 9 11 21 11 26 0 50 23 39
39 -5 9 -10 10 -14 2 -12 -19 -24 -12 -19 12 4 22 4 22 -10 -2 -12 -21 -15
-21 -21 -6 -4 11 -13 15 -26 12 -10 -3 -24 1 -30 8 -9 10 -7 12 7 9 10 -2 25
0 33 6 13 9 13 11 0 19 -9 6 -19 6 -26 0 -7 -6 -18 -9 -26 -8 -7 2 -23 -2 -35
-9 -13 -7 -23 -8 -23 -3 0 5 -10 7 -22 3 -21 -5 -22 -4 -9 11 7 9 9 17 3 17
-5 0 -12 -7 -16 -15z m68 -116 c-3 -6 0 -15 7 -20 12 -8 11 -11 -3 -20 -10 -5
-18 -18 -18 -27 0 -14 2 -15 10 -2 11 18 16 13 25 -22 5 -19 1 -32 -14 -47
l-21 -21 21 -10 c14 -8 24 -8 33 -1 7 6 16 8 19 4 4 -3 13 0 22 7 22 18 29 6
14 -22 -7 -12 -12 -27 -10 -33 1 -5 -6 -2 -17 8 -19 17 -72 24 -72 9 0 -5 7
-17 15 -28 17 -22 20 -38 5 -29 -5 3 -10 0 -10 -8 0 -21 12 -28 27 -16 8 7 13
8 13 1 0 -5 -6 -12 -14 -15 -8 -3 -16 -16 -18 -29 -3 -25 -42 -38 -61 -19 -8
8 -4 11 13 11 30 0 18 12 -16 16 -37 4 -54 12 -54 24 0 5 7 10 15 10 8 0 15 9
15 20 0 22 -25 27 -37 7 -14 -22 -57 -36 -77 -25 -15 8 -16 12 -5 19 11 7 10
9 -3 9 -19 0 -24 15 -9 24 5 3 27 -1 50 -9 23 -8 41 -11 41 -8 0 15 -45 53
-62 53 -24 0 -23 8 7 36 14 13 21 26 15 29 -17 11 -11 36 8 34 24 -4 62 19 62
36 0 8 6 15 14 15 8 0 16 5 18 11 3 9 10 9 26 0 24 -13 27 -9 12 20 -9 15 -7
19 5 19 9 0 13 -5 9 -11z"/>
<path d="M2470 1020 c0 -6 5 -10 10 -10 6 0 1 -9 -11 -21 -16 -16 -23 -18 -35
-8 -11 9 -14 8 -14 -10 0 -13 6 -21 18 -21 15 -1 15 -2 -2 -12 -14 -8 -24 -8
-39 1 -14 9 -22 10 -30 2 -6 -6 -19 -11 -29 -11 -16 0 -23 -11 -19 -32 0 -5
-6 -8 -14 -8 -8 0 -15 7 -15 15 0 8 -4 15 -10 15 -17 0 -11 22 11 46 20 21 20
23 2 31 -36 17 -58 10 -61 -19 -2 -16 -8 -28 -13 -28 -14 0 1 -52 23 -76 20
-22 17 -45 -11 -77 -13 -15 -13 -20 -1 -27 11 -7 11 -11 1 -24 -10 -12 -9 -22
4 -50 10 -20 24 -36 32 -36 17 0 52 39 53 58 0 7 5 10 10 7 6 -3 8 -16 6 -28
-16 -78 -16 -78 -36 -72 -17 5 -20 2 -20 -26 0 -18 6 -40 14 -48 15 -17 5 -61
-14 -61 -14 0 -31 46 -24 64 3 8 1 23 -5 33 -10 17 -10 17 -11 0 0 -10 -4 -15
-10 -12 -5 3 -10 16 -10 27 0 42 -14 7 -15 -40 -1 -26 -6 -55 -10 -64 -4 -10
-4 -25 -1 -34 6 -15 8 -15 24 -2 27 24 42 30 42 18 0 -12 -46 -34 -74 -34 -12
-1 -29 -17 -42 -41 -33 -58 -37 -66 -33 -69 2 -1 49 1 104 5 55 4 118 6 140 3
359 -35 432 -36 520 -10 6 2 25 7 43 11 45 11 41 32 -5 26 -17 -2 -16 29 2 53
11 14 11 22 2 37 -16 26 -23 24 -58 -16 -32 -35 -53 -44 -64 -24 -7 11 44 64
53 55 5 -6 31 24 32 37 0 17 -31 5 -46 -18 -16 -25 -34 -33 -34 -17 0 5 11 22
25 38 13 15 22 30 20 32 -2 3 2 13 9 24 12 16 12 24 -1 49 -8 16 -12 33 -8 39
3 5 1 10 -4 10 -6 0 -11 -7 -11 -16 0 -24 -21 -39 -60 -42 -45 -3 -80 5 -80
19 0 8 15 9 44 5 41 -7 44 -5 50 20 5 20 2 30 -14 41 -11 8 -20 25 -20 39 0
14 -4 23 -8 20 -4 -2 -14 0 -22 5 -13 8 -13 10 0 19 13 8 12 10 -2 10 -10 0
-26 8 -36 18 -10 10 -26 22 -36 25 -9 4 -15 11 -12 16 12 19 -27 20 -51 1
l-25 -20 -20 25 c-12 15 -30 25 -45 25 -15 0 -23 3 -19 8 4 4 13 7 19 7 7 0
11 11 9 28 -2 15 1 27 7 27 6 0 11 -7 11 -15 0 -8 9 -19 21 -26 13 -7 19 -17
16 -29 -4 -16 -1 -17 25 -8 29 10 29 10 8 25 -27 19 -25 70 3 65 29 -5 19 15
-14 27 -27 9 -32 8 -36 -9 -7 -28 -19 -25 -33 9 -11 29 -40 50 -40 31z"/>
<path d="M3536 843 c-3 -10 -8 -45 -11 -78 -4 -33 -13 -70 -21 -82 -8 -13 -13
-23 -12 -24 2 0 41 -1 88 -3 82 -3 134 -15 265 -58 99 -33 227 -69 280 -79 28
-5 59 -11 70 -14 94 -21 212 -33 330 -33 l140 -1 -73 14 c-40 7 -90 20 -110
28 -20 8 -61 18 -90 22 -47 6 -56 4 -73 -14 -24 -26 -52 -18 -43 13 4 11 13
25 22 30 13 7 11 11 -9 22 -13 7 -33 14 -44 14 -11 1 -38 7 -60 15 -29 10 -42
11 -50 3 -7 -8 -6 -9 2 -4 6 3 13 1 15 -5 2 -6 18 -12 36 -13 26 -1 36 -8 52
-39 l20 -37 -39 0 c-30 0 -42 5 -55 25 -21 32 -38 40 -159 76 -129 39 -280
111 -380 183 -43 31 -80 56 -82 56 -2 0 -6 -8 -9 -17z"/>
<path d="M5478 635 c-8 -8 -145 -45 -228 -61 -169 -33 -241 -44 -369 -56 -92
-8 -135 -16 -138 -25 -3 -7 -11 -13 -19 -13 -8 0 -14 -4 -14 -9 0 -5 16 -5 38
-1 20 5 82 10 137 13 273 13 594 73 609 114 3 7 0 13 -6 13 -7 0 -6 5 2 15 11
14 1 22 -12 10z"/>
</g>
</svg>
