<svg width="689" height="689" viewBox="0 0 689 689" fill="none" xmlns="http://www.w3.org/2000/svg">
<path d="M458.956 250.247L293.284 415.914L230.408 353.026C226.204 348.817 219.389 348.817 215.185 353.015C210.981 357.225 210.981 364.039 215.185 368.243L293.29 446.364L474.179 265.464C478.383 261.271 478.383 254.451 474.179 250.247C469.975 246.037 463.16 246.037 458.956 250.247ZM344.674 74.6649C195.882 74.6649 74.8389 195.714 74.8389 344.484C74.8496 493.275 195.898 614.329 344.685 614.329H344.706C493.476 614.329 614.509 493.275 614.509 344.484C614.509 195.708 493.466 74.6649 344.674 74.6649ZM344.706 592.798H344.685C207.773 592.798 96.3809 481.406 96.3701 344.484C96.3701 207.577 207.757 96.1961 344.674 96.1961C481.591 96.1961 592.978 207.583 592.978 344.484C592.978 481.406 481.607 592.798 344.706 592.798Z" fill="black"/>
</svg>
