<svg width="89" height="90" viewBox="0 0 89 90" fill="none" xmlns="http://www.w3.org/2000/svg">
<path d="M75.0938 17.1875H58.4062V14.4062C58.4062 9.80606 54.6627 6.0625 50.0625 6.0625H38.9375C34.3373 6.0625 30.5938 9.80606 30.5938 14.4062V17.1875H13.9062C10.8385 17.1875 8.34375 19.6823 8.34375 22.75V25.5312C8.34375 27.0665 9.58975 28.3125 11.125 28.3125H77.875C79.4102 28.3125 80.6562 27.0665 80.6562 25.5312V22.75C80.6562 19.6823 78.1615 17.1875 75.0938 17.1875ZM36.1562 14.4062C36.1562 12.8738 37.405 11.625 38.9375 11.625H50.0625C51.595 11.625 52.8438 12.8738 52.8438 14.4062V17.1875H36.1562V14.4062Z" fill="black"/>
<path d="M16.6875 33.875V75.5938C16.6875 80.1939 20.4311 83.9375 25.0312 83.9375H63.9688C68.5689 83.9375 72.3125 80.1939 72.3125 75.5938V33.875H16.6875ZM54.8101 62.5024C55.8976 63.5899 55.8976 65.3476 54.8101 66.4351C53.7226 67.5226 51.9649 67.5226 50.8774 66.4351L44.5 60.0577L38.1226 66.4351C37.0351 67.5226 35.2774 67.5226 34.1899 66.4351C33.1024 65.3476 33.1024 63.5899 34.1899 62.5024L40.5673 56.125L34.1899 49.7476C33.1024 48.6601 33.1024 46.9024 34.1899 45.8149C35.2774 44.7274 37.0351 44.7274 38.1226 45.8149L44.5 52.1923L50.8774 45.8149C51.9649 44.7274 53.7226 44.7274 54.8101 45.8149C55.8976 46.9024 55.8976 48.6601 54.8101 49.7476L48.4327 56.125L54.8101 62.5024Z" fill="black"/>
</svg>
